<?xml version="1.0" standalone="no"?>
<!DOCTYPE svg PUBLIC "-//W3C//DTD SVG 20010904//EN"
 "http://www.w3.org/TR/2001/REC-SVG-20010904/DTD/svg10.dtd">
<svg version="1.0" xmlns="http://www.w3.org/2000/svg"
 width="1280.000000pt" height="1002.000000pt" viewBox="0 0 1280.000000 1002.000000"
 preserveAspectRatio="xMidYMid meet">
<metadata>
Created by potrace 1.15, written by Peter Selinger 2001-2017
</metadata>
<g transform="translate(0.000000,1002.000000) scale(0.100000,-0.100000)"
fill="#000000" stroke="none">
<path d="M4915 9960 c-44 -34 -116 -93 -160 -133 -65 -59 -96 -80 -165 -107
-47 -19 -151 -67 -232 -107 -81 -40 -149 -73 -152 -73 -2 0 -12 23 -22 50 -10
28 -21 47 -25 43 -3 -5 -12 -36 -19 -69 -7 -34 -15 -66 -19 -71 -3 -5 -42 -34
-86 -63 -44 -29 -114 -82 -157 -116 -73 -60 -77 -63 -111 -53 -42 11 -98 1
-177 -34 -62 -27 -60 -28 57 -47 l73 -12 -42 -61 c-23 -33 -50 -83 -60 -111
-19 -49 -41 -244 -36 -317 2 -29 -5 -45 -35 -79 -20 -24 -46 -62 -56 -84 -31
-64 -82 -208 -73 -204 5 1 44 42 87 91 43 48 80 85 83 83 5 -5 31 -237 32
-277 0 -23 -9 -30 -66 -54 -89 -38 -171 -115 -212 -198 -71 -143 -63 -280 18
-350 100 -85 230 -71 348 36 26 25 43 34 39 24 -4 -10 -7 -23 -7 -28 0 -5 -6
-9 -13 -9 -11 0 -15 -41 -21 -192 -33 -908 -46 -1252 -50 -1255 -2 -2 -24 1
-47 7 -26 7 -69 10 -105 6 l-61 -6 -99 102 c-148 152 -285 332 -372 488 -29
52 -31 64 -41 220 -28 449 -134 740 -378 1045 -304 379 -711 587 -1066 544
-283 -34 -571 -183 -829 -428 -199 -189 -351 -397 -473 -646 -121 -247 -172
-436 -182 -670 -24 -552 245 -1163 641 -1457 84 -63 238 -142 346 -178 159
-53 416 -87 581 -76 l96 7 47 -58 c90 -109 265 -290 378 -390 315 -279 599
-438 886 -498 112 -23 108 -18 -23 29 -215 76 -438 206 -670 392 -110 88 -413
383 -493 480 l-42 52 98 17 c130 23 310 76 434 126 75 31 103 39 106 29 9 -27
75 -90 116 -109 23 -12 57 -21 74 -21 37 0 37 2 15 -40 -26 -53 -28 -120 -5
-172 25 -58 76 -97 155 -118 57 -16 62 -19 57 -41 -13 -60 -5 -164 15 -198 28
-47 81 -88 144 -110 51 -18 55 -22 74 -72 30 -82 69 -132 124 -160 26 -13 49
-24 50 -24 5 0 -27 -368 -37 -410 -21 -94 -78 -192 -165 -282 l-80 -83 -110
25 c-627 140 -1173 401 -1632 782 -128 106 -369 353 -462 473 -256 330 -443
714 -527 1082 -10 43 -20 76 -22 74 -5 -6 25 -155 57 -284 168 -661 555 -1223
1122 -1624 434 -309 995 -529 1528 -600 50 -6 89 -13 87 -15 -2 -2 -43 -15
-92 -28 -149 -41 -579 -210 -582 -229 -2 -9 11 -73 28 -142 51 -204 52 -235
22 -516 -26 -241 -26 -247 -8 -267 11 -12 30 -21 43 -21 14 0 151 76 316 177
161 97 470 284 689 416 l396 239 719 -111 c395 -61 734 -111 753 -111 33 0 39
5 87 78 51 75 95 158 127 236 24 57 66 217 66 249 0 15 4 27 8 27 7 0 164 -74
727 -341 19 -9 20 -20 20 -202 0 -176 3 -201 27 -295 68 -259 192 -452 323
-501 101 -38 230 -24 350 36 80 41 152 99 299 243 315 307 562 652 786 1100
230 459 321 760 290 955 -16 101 -42 149 -94 174 -70 34 -167 22 -317 -38 -83
-33 -385 -193 -554 -293 -60 -36 -151 -88 -201 -117 -228 -127 -516 -395 -721
-668 -39 -52 -84 -124 -100 -159 -15 -35 -32 -64 -37 -64 -12 0 -98 63 -191
140 -151 126 -334 255 -512 358 -74 43 -89 49 -78 32 4 -6 3 -52 -1 -103 -5
-50 -9 -83 -11 -72 -1 11 -7 87 -14 168 -14 182 -9 176 -162 158 -56 -6 -131
-18 -167 -25 -36 -8 -66 -13 -67 -12 -1 1 42 35 94 76 447 347 720 843 782
1422 16 140 12 206 -4 82 -59 -453 -203 -825 -448 -1149 -79 -104 -270 -294
-377 -375 l-84 -64 -171 -37 c-93 -20 -171 -34 -173 -31 -1 4 -70 175 -152
381 -82 206 -148 376 -147 377 1 1 45 9 97 18 51 9 96 19 99 21 2 3 -45 5
-106 5 l-111 0 -21 53 c-14 34 -24 94 -31 172 -25 293 -50 658 -47 661 2 3 51
-11 109 -31 237 -79 499 -116 688 -96 261 27 445 132 531 304 51 100 62 165
56 317 -7 169 -25 240 -26 104 -2 -176 -56 -319 -161 -424 -74 -75 -152 -119
-265 -152 -70 -20 -102 -23 -260 -23 -149 0 -199 4 -288 23 -95 20 -343 94
-355 107 -2 2 16 28 41 57 146 172 139 334 -21 448 -130 93 -335 106 -401 26
-19 -23 -66 -47 -83 -42 -7 2 -25 7 -40 10 -38 8 -54 61 -39 123 24 95 99 171
281 284 55 34 107 70 116 80 18 20 13 34 -49 117 -93 126 -106 223 -62 458 15
82 29 151 31 153 2 2 29 -20 61 -49 32 -29 70 -62 84 -73 l27 -19 -30 -49
c-37 -58 -48 -128 -24 -148 15 -13 327 -94 333 -87 2 2 14 38 27 82 14 43 25
75 25 69 1 -5 -11 -76 -26 -158 -28 -155 -26 -178 12 -185 28 -6 425 178 425
197 0 9 -9 49 -20 90 -11 41 -20 98 -20 126 0 48 2 52 33 67 52 25 135 95 153
130 10 20 14 45 11 69 -6 49 -49 141 -87 189 l-30 38 83 -26 c115 -35 273 -37
367 -3 208 73 346 255 358 471 13 251 -131 430 -346 430 -91 0 -164 -20 -274
-77 -51 -26 -97 -49 -101 -52 -5 -2 3 14 17 35 14 22 31 54 37 72 8 22 14 30
19 22 10 -15 14 7 36 165 10 77 14 158 11 225 -6 141 -30 205 -108 283 -57 57
-77 95 -94 177 l-7 35 17 -24 c15 -19 70 -51 90 -51 3 0 5 24 5 54 0 62 -19
91 -54 82 -12 -3 -31 -9 -43 -12 -22 -6 -23 -4 -23 64 0 39 -4 83 -10 97 -7
19 -6 33 4 52 16 31 56 46 520 203 169 58 303 106 298 108 -5 1 -143 -18 -308
-43 -252 -38 -334 -56 -396 -83 -5 -2 -1 9 9 25 9 17 14 37 10 48 -6 15 -16
17 -70 12 -50 -4 -169 -35 -244 -64 -8 -3 13 34 47 82 33 48 60 91 58 96 -2 5
-39 -18 -83 -51z m-1161 -1724 c-3 -8 -16 -17 -29 -20 -13 -3 -31 -9 -42 -12
-10 -3 0 5 22 20 46 29 57 32 49 12z m-2177 -173 c-4 -38 -7 -91 -7 -119 l0
-51 -96 -41 c-52 -23 -99 -42 -103 -42 -4 0 -16 27 -26 60 -10 34 -22 63 -26
65 -3 3 -20 0 -37 -6 l-31 -10 25 -65 c13 -35 24 -68 24 -73 0 -5 -57 -33
-126 -62 -69 -29 -157 -72 -196 -96 -38 -24 -73 -41 -77 -39 -4 3 -13 23 -21
45 -15 46 -17 47 -47 26 l-22 -16 19 -50 20 -50 -35 -30 c-46 -41 -44 -52 4
-26 22 12 41 20 44 17 2 -3 42 -84 89 -181 l85 -176 -48 -27 c-27 -15 -49 -29
-49 -31 0 -3 25 6 55 20 l55 24 68 -132 c37 -73 85 -171 108 -218 l41 -86 -48
-39 c-27 -21 -47 -40 -44 -42 2 -2 23 8 48 22 24 14 48 26 53 26 5 0 22 -31
38 -69 26 -62 31 -69 48 -60 31 17 31 34 -1 97 l-30 60 22 15 c32 21 265 137
275 137 4 0 16 -22 26 -50 19 -54 21 -55 61 -40 l25 10 -25 50 c-14 27 -25 53
-25 58 0 8 90 56 94 50 2 -2 20 -43 41 -93 92 -218 239 -491 381 -708 46 -70
84 -132 84 -137 0 -14 -111 -108 -195 -164 -198 -133 -458 -226 -629 -226
l-51 0 -77 123 c-360 576 -592 1166 -678 1726 -29 189 -30 187 38 263 225 254
547 423 811 427 l74 1 -6 -67z m228 10 c50 -20 135 -58 190 -86 87 -43 112
-62 195 -146 241 -246 396 -545 440 -846 30 -213 -13 -477 -116 -702 -38 -84
-139 -243 -154 -243 -20 0 -171 254 -274 460 -71 143 -171 371 -190 436 -6 19
6 27 111 74 189 85 245 116 303 168 l55 50 -240 -119 c-132 -65 -243 -119
-246 -119 -6 0 -88 271 -114 380 -9 36 -18 72 -21 82 -4 12 24 32 118 84 114
62 268 159 268 169 0 2 -28 -6 -62 -17 -40 -13 -80 -37 -109 -62 -57 -51 -218
-139 -224 -123 -8 22 -43 232 -50 299 l-7 67 33 14 c30 13 133 107 117 107 -3
0 -35 -13 -70 -30 -34 -16 -68 -30 -74 -30 -11 0 -24 74 -24 143 0 36 1 37 28
31 15 -3 68 -22 117 -41z m-230 -290 c6 -60 32 -254 42 -310 5 -31 3 -33 -53
-58 -32 -14 -61 -22 -65 -18 -8 9 -111 339 -113 362 -1 10 29 26 84 47 47 18
88 33 92 33 4 1 9 -25 13 -56z m-250 -60 c4 -10 33 -95 65 -190 l59 -172 -182
-94 -182 -95 -42 82 c-23 45 -60 126 -83 180 -35 82 -40 100 -29 112 17 16
360 194 375 194 7 0 15 -8 19 -17z m2940 -113 c-3 -6 -13 -10 -20 -10 -12 0
-12 5 -3 25 10 22 13 23 20 10 5 -8 6 -20 3 -25z m-3645 -325 c14 -103 69
-332 110 -460 108 -339 318 -780 532 -1119 38 -60 66 -111 63 -114 -13 -14
-187 33 -271 72 -336 159 -571 452 -671 836 -34 131 -43 354 -19 496 29 173
102 366 195 519 l36 60 7 -105 c4 -58 12 -141 18 -185z m1045 -5 c20 -74 52
-177 71 -229 19 -51 34 -97 34 -102 0 -9 -72 -49 -89 -49 -5 0 -26 42 -46 93
-37 91 -125 344 -125 359 0 6 113 69 116 65 1 -1 18 -63 39 -137z m-182 -16
c11 -32 46 -135 79 -227 33 -93 58 -170 56 -172 -9 -8 -287 -145 -295 -145 -9
0 -229 428 -222 432 36 23 347 176 353 174 6 -1 18 -29 29 -62z m1513 -651
c89 -153 200 -304 314 -426 42 -46 43 -49 25 -59 -39 -21 -103 -96 -129 -151
-39 -83 -55 -178 -66 -386 -5 -102 -10 -197 -10 -210 0 -22 3 -23 49 -19 46 5
48 4 38 -14 -14 -22 -10 -21 -71 -3 -28 8 -88 15 -137 15 l-88 0 -113 120
c-62 67 -114 126 -116 133 -1 7 15 58 37 113 52 131 103 301 135 453 29 138
66 406 66 481 0 28 2 50 4 50 3 0 30 -44 62 -97z m-170 -1284 c-6 -4 -25 -10
-42 -13 -29 -6 -32 -5 -37 22 -9 44 -67 95 -145 128 -2 1 7 18 19 39 l22 37
98 -103 c58 -63 92 -107 85 -110z m594 91 c0 -5 -7 -7 -15 -4 -8 4 -15 8 -15
10 0 2 7 4 15 4 8 0 15 -4 15 -10z m-11 -91 c-11 -60 -31 -100 -44 -87 -4 3 6
40 21 82 15 42 28 75 30 73 2 -2 -1 -32 -7 -68z"/>
<path d="M11025 8313 c-436 -20 -781 -100 -1068 -248 -215 -110 -393 -265
-493 -426 l-35 -56 -357 -61 c-197 -34 -366 -62 -377 -63 -11 0 -15 -3 -9 -5
9 -4 582 71 695 90 l26 5 -33 -77 c-79 -182 -98 -404 -43 -522 50 -108 124
-165 255 -196 82 -19 226 -15 319 10 154 41 283 135 332 242 75 164 -37 369
-263 486 -102 53 -233 94 -329 104 -36 4 -65 9 -65 11 0 15 73 106 134 167
262 261 708 438 1221 485 274 25 356 24 570 -8 110 -16 322 -48 470 -71 149
-22 284 -42 300 -45 78 -13 -27 19 -245 74 -347 87 -665 120 -1005 104z
m-1280 -783 c117 -36 249 -107 320 -172 239 -219 123 -472 -237 -518 -188 -23
-343 32 -391 139 -41 94 -6 337 76 515 l31 69 66 -6 c36 -3 97 -15 135 -27z"/>
<path d="M12060 8046 c-113 -32 -208 -93 -299 -193 -169 -183 -209 -437 -98
-621 45 -75 149 -171 229 -210 111 -54 214 -76 338 -69 408 20 656 325 540
664 -33 95 -149 315 -126 237 4 -14 -9 -6 -43 27 -60 57 -174 126 -261 156
-75 26 -205 30 -280 9z"/>
<path d="M7029 7151 c-160 -51 -305 -231 -317 -392 l-5 -67 -41 -6 c-75 -13
-179 -71 -238 -134 -81 -88 -102 -191 -55 -282 38 -77 95 -103 252 -117 l90
-8 -56 -32 c-146 -83 -195 -225 -127 -369 49 -105 147 -167 273 -172 132 -6
221 35 357 166 l68 65 52 -18 c30 -9 97 -19 153 -22 129 -6 191 14 258 86 81
86 96 194 43 299 l-25 48 62 31 c219 108 358 394 273 561 -30 59 -58 85 -120
113 -78 34 -247 26 -359 -17 -29 -11 -38 -11 -42 -2 -2 7 -11 36 -20 65 -32
101 -110 176 -219 208 -67 20 -188 18 -257 -4z"/>
<path d="M820 2992 c-188 -49 -348 -226 -461 -509 -40 -102 -93 -295 -119
-436 -96 -533 -50 -1254 105 -1635 70 -171 190 -322 301 -376 107 -52 241 -43
363 26 83 46 273 242 354 364 125 188 221 422 270 659 97 463 101 938 12 1296
-43 171 -87 263 -176 369 -75 88 -303 217 -434 245 -89 19 -134 18 -215 -3z"/>
<path d="M2152 2884 c-147 -34 -224 -58 -412 -127 -91 -33 -167 -62 -169 -64
-2 -1 25 -41 60 -88 l64 -86 130 5 c182 8 347 31 486 67 l36 9 -8 43 c-4 23
-8 91 -9 151 l0 108 -27 -6 c-21 -5 -24 -4 -13 4 25 16 -24 11 -138 -16z"/>
</g>
</svg>
