<?xml version="1.0" standalone="no"?>
<!DOCTYPE svg PUBLIC "-//W3C//DTD SVG 20010904//EN"
 "http://www.w3.org/TR/2001/REC-SVG-20010904/DTD/svg10.dtd">
<svg version="1.0" xmlns="http://www.w3.org/2000/svg"
 width="640.000000pt" height="1280.000000pt" viewBox="0 0 640.000000 1280.000000"
 preserveAspectRatio="xMidYMid meet">
<metadata>
Created by potrace 1.15, written by Peter Selinger 2001-2017
</metadata>
<g transform="translate(0.000000,1280.000000) scale(0.100000,-0.100000)"
fill="#000000" stroke="none">
<path d="M2814 12790 c-133 -12 -260 -51 -419 -130 -286 -142 -522 -359 -744
-685 -278 -408 -503 -968 -640 -1597 -109 -496 -149 -836 -158 -1324 -7 -361
2 -503 53 -844 19 -129 33 -248 30 -264 -4 -16 -1 -35 4 -42 19 -22 81 -575
130 -1154 63 -752 109 -1231 145 -1515 113 -887 269 -1714 510 -2690 207 -836
438 -1460 673 -1815 273 -411 594 -629 1047 -710 100 -18 341 -24 467 -11 246
24 347 50 524 136 526 255 803 847 781 1665 -14 511 -119 949 -342 1435 -112
243 -165 373 -225 554 -240 728 -249 1365 -29 2168 72 263 120 402 431 1258
165 456 292 849 378 1177 61 234 87 403 111 718 15 199 6 705 -15 900 -89 800
-322 1442 -702 1935 -98 128 -301 328 -426 421 -284 211 -607 343 -978 399
-122 19 -472 27 -606 15z m621 -209 c66 -11 136 -25 155 -30 19 -5 55 -15 80
-22 l45 -12 -384 -128 -384 -128 -31 26 c-17 14 -88 81 -159 149 l-127 123 57
17 c91 27 172 33 408 29 164 -2 250 -9 340 -24z m-671 -202 c92 -88 173 -158
179 -156 85 32 820 267 834 267 25 0 124 -40 227 -92 70 -35 78 -42 59 -49
-11 -4 -272 -83 -579 -175 -308 -91 -564 -168 -569 -171 -11 -3 -517 420 -523
437 -4 10 171 100 193 100 6 0 86 -72 179 -161z m-152 -178 c139 -118 260
-220 269 -227 13 -12 111 15 632 171 l616 185 44 -26 c34 -21 75 -72 201 -251
86 -123 159 -229 162 -236 2 -7 -13 -29 -34 -50 l-39 -38 -134 192 c-73 105
-139 193 -145 196 -7 2 -292 -80 -635 -183 -343 -103 -630 -187 -637 -188 -6
0 -167 129 -357 288 l-346 289 67 49 c37 27 71 47 75 46 4 -2 121 -99 261
-217z m227 -453 l57 -47 632 190 c348 104 636 189 640 189 7 0 240 -328 256
-362 7 -15 2 -26 -24 -53 -19 -19 -37 -35 -41 -35 -4 0 -45 53 -91 118 l-83
119 -90 -28 c-181 -55 -1160 -347 -1177 -351 -11 -2 -160 117 -404 321 l-387
324 -71 -21 c-39 -11 -73 -19 -75 -16 -2 2 41 49 97 104 l101 101 302 -253
c166 -139 327 -274 358 -300z m1639 307 c51 -49 107 -107 124 -128 l31 -38
-23 -25 c-13 -13 -28 -24 -34 -23 -10 0 -245 327 -255 354 -5 13 43 -29 157
-140z m-2149 -138 c113 -96 287 -241 386 -324 l180 -151 630 189 c347 104 635
189 640 189 6 0 45 -51 88 -112 l78 -111 -41 -41 c-33 -34 -43 -38 -50 -26 -5
8 -19 29 -32 46 l-23 31 -630 -189 c-346 -103 -635 -189 -641 -191 -7 -1 -184
142 -394 318 -210 176 -388 321 -395 323 -6 2 -93 -17 -191 -42 -98 -25 -180
-44 -181 -42 -3 3 107 165 147 215 24 31 43 42 112 63 46 15 89 27 97 27 7 1
106 -77 220 -172z m118 -359 c179 -150 353 -296 387 -324 l62 -52 74 23 c223
69 1187 355 1197 355 6 0 21 -16 33 -35 l22 -35 -33 -38 c-18 -20 -53 -60 -79
-89 l-47 -52 -572 -171 c-315 -94 -579 -170 -586 -168 -8 2 -184 145 -390 318
-207 173 -383 316 -390 318 -11 3 -402 -107 -527 -148 -16 -5 -28 -6 -28 -2 0
4 33 68 73 142 l74 134 184 47 c101 26 192 48 203 48 10 1 158 -116 343 -271z
m2362 93 c28 -44 51 -84 51 -88 0 -12 -207 -86 -220 -78 -5 3 -28 32 -49 64
l-40 58 53 46 c53 45 105 75 138 76 10 1 36 -30 67 -78z m-2299 -405 l385
-323 40 13 c22 7 270 81 550 165 281 83 516 154 524 157 7 3 -24 -39 -69 -94
-46 -54 -99 -120 -119 -146 -20 -28 -48 -52 -66 -58 -185 -59 -841 -250 -851
-248 -7 2 -185 147 -395 323 -210 176 -385 319 -388 318 -32 -7 -641 -187
-659 -194 -21 -8 -23 -7 -16 13 14 45 96 228 105 234 16 10 533 162 554 163
12 0 165 -121 405 -323z m2053 277 c17 -25 41 -57 52 -69 l20 -23 115 44 c63
24 121 44 127 44 16 1 97 -159 86 -169 -15 -15 -314 -130 -323 -125 -11 7
-190 263 -190 272 0 10 62 73 72 73 5 0 23 -21 41 -47z m-110 -100 c18 -27 66
-94 105 -150 l72 -102 181 74 181 73 30 -67 c43 -95 59 -144 51 -151 -5 -4
-102 -37 -217 -74 -173 -56 -211 -65 -221 -54 -7 7 -68 92 -135 188 -68 96
-131 186 -140 200 -18 25 -18 26 17 68 19 23 36 42 38 42 2 0 19 -21 38 -47z
m32 -306 l145 -205 37 13 c21 7 127 42 235 78 l197 65 35 -106 c20 -58 35
-107 33 -108 -2 -2 -142 -45 -361 -109 -132 -39 -160 -45 -171 -34 -17 18
-395 558 -395 564 0 3 17 23 37 46 36 40 38 40 51 21 7 -11 78 -112 157 -225z
m-1980 -127 c209 -175 387 -319 395 -319 8 -1 200 55 425 123 226 68 411 122
413 121 1 -1 -42 -64 -96 -140 l-100 -138 -313 -94 c-173 -51 -319 -92 -325
-91 -7 2 -184 147 -394 323 -234 196 -388 319 -398 317 -10 -2 -114 -31 -232
-64 -486 -135 -534 -148 -536 -145 -2 2 31 103 62 184 15 41 18 44 87 64 382
115 595 177 612 178 12 1 164 -120 400 -319z m1916 -40 c112 -159 208 -290
215 -290 10 0 225 62 466 135 l77 23 15 -51 c28 -98 37 -139 34 -143 -3 -2
-47 -17 -99 -33 -52 -16 -181 -57 -288 -90 -106 -34 -195 -61 -196 -61 -2 0
-104 143 -226 318 -122 174 -225 320 -228 324 -4 4 -35 -1 -71 -12 -35 -11
-66 -18 -67 -16 -5 5 148 186 157 186 4 0 99 -130 211 -290z m-1904 -228 c205
-172 378 -312 385 -312 7 0 146 41 308 89 162 49 297 88 298 86 2 -2 -14 -30
-35 -62 -22 -32 -59 -91 -82 -130 -49 -83 -11 -65 -327 -158 l-161 -48 -388
325 -388 326 -266 -69 c-490 -127 -577 -149 -588 -149 -10 0 41 197 55 212 4
4 183 56 397 116 314 88 393 107 405 97 8 -6 182 -152 387 -323z m1887 -7
c120 -170 223 -311 229 -313 7 -1 145 40 307 91 194 62 297 90 301 83 9 -15
43 -195 38 -200 -3 -3 -508 -159 -620 -192 -12 -3 -74 78 -239 313 -122 175
-225 321 -229 325 -4 4 -94 -19 -201 -51 -107 -32 -197 -57 -199 -55 -2 2 43
65 100 141 l105 137 85 26 c61 20 87 24 95 16 6 -6 109 -150 228 -321z m-1887
-252 c205 -172 377 -313 381 -313 5 0 98 27 208 60 109 33 202 60 206 60 4 0
-6 -23 -23 -52 -17 -28 -48 -86 -69 -129 l-39 -77 -98 -30 c-54 -17 -116 -36
-139 -42 l-41 -12 -389 326 c-214 179 -393 325 -399 323 -45 -17 -916 -250
-919 -246 -7 6 50 230 61 239 4 4 141 42 303 84 162 42 354 91 425 110 99 25
133 31 145 22 8 -6 182 -152 387 -323z m1884 -2 c123 -177 227 -321 231 -321
4 0 153 45 330 100 177 54 324 97 326 95 10 -10 33 -188 25 -195 -4 -4 -152
-54 -328 -110 -176 -56 -325 -104 -331 -107 -6 -2 -108 135 -227 304 -119 169
-222 316 -229 326 -13 17 -30 13 -317 -73 -166 -50 -305 -90 -307 -88 -3 3
157 252 170 265 6 7 421 130 427 127 3 -1 106 -147 230 -323z m-1897 -246
c213 -179 390 -325 393 -325 3 0 60 16 125 36 66 19 122 34 124 31 2 -2 -22
-58 -53 -125 l-57 -121 -60 -21 c-33 -11 -63 -20 -67 -20 -4 0 -182 146 -395
325 -242 203 -394 323 -403 321 -105 -31 -963 -247 -966 -244 -6 6 31 197 40
206 5 5 887 254 926 261 3 1 180 -145 393 -324z m1901 -20 c120 -170 219 -311
220 -313 4 -5 40 6 383 118 173 56 316 100 318 97 2 -2 5 -43 6 -91 l3 -87
-255 -95 c-140 -52 -289 -108 -330 -123 l-75 -28 -38 25 c-27 18 -98 111 -244
319 -113 161 -209 293 -212 293 -3 0 -183 -54 -399 -119 -294 -88 -391 -114
-387 -102 3 9 36 68 72 133 l67 116 315 95 c236 71 319 92 328 83 6 -6 109
-150 228 -321z m-1903 -238 c206 -172 379 -317 386 -321 6 -4 35 0 64 9 62 18
71 19 62 3 -4 -6 -26 -61 -50 -122 -27 -71 -47 -111 -56 -110 -8 1 -186 146
-397 322 -340 286 -386 321 -410 316 -14 -4 -91 -24 -171 -44 -80 -21 -219
-57 -310 -80 -91 -23 -230 -59 -310 -80 -80 -21 -160 -41 -179 -45 l-34 -7 7
53 c4 30 12 81 18 114 l11 61 486 126 c267 70 491 125 498 123 6 -2 180 -145
385 -318z m1851 53 c91 -129 164 -236 163 -237 -2 -2 -20 6 -42 16 -22 11 -52
23 -65 26 -15 4 -64 51 -123 121 -54 63 -101 114 -104 114 -3 0 -216 -63 -473
-140 -257 -77 -470 -140 -473 -140 -3 0 23 58 58 128 l64 128 404 121 c308 93
406 119 415 110 7 -7 86 -118 176 -247z m-1852 -311 c211 -177 388 -323 395
-326 8 -3 4 -29 -15 -88 -14 -47 -29 -85 -32 -85 -3 0 -166 135 -363 300 -197
165 -360 300 -362 300 -5 0 -1004 -257 -1038 -267 -18 -5 -19 -1 -13 71 13
151 14 154 61 164 22 5 167 42 321 82 154 40 363 94 465 120 102 27 188 49
192 49 4 1 179 -143 389 -320z m1748 224 c72 -82 72 -83 39 -75 -18 4 -98 7
-178 6 -128 0 -156 -4 -235 -28 -143 -43 -277 -121 -382 -219 -26 -25 -67 -41
-205 -83 -95 -28 -174 -50 -176 -49 -5 4 88 228 99 240 11 11 937 294 955 292
6 -1 43 -39 83 -84z m1106 -135 c12 -163 38 -139 -248 -231 l-248 -79 -17 23
c-9 13 -42 52 -74 85 l-59 61 238 88 c131 49 270 101 308 116 39 15 75 28 82
28 7 1 14 -31 18 -91z m-2892 -314 c188 -158 350 -294 360 -303 17 -16 17 -21
-5 -103 l-23 -86 -334 280 -334 280 -161 -41 c-156 -40 -299 -77 -704 -182
-106 -27 -198 -47 -204 -43 -10 7 -5 200 5 211 5 5 1026 271 1045 272 6 1 166
-128 355 -285z m1813 136 c132 -33 216 -82 319 -185 74 -73 99 -106 132 -175
60 -123 77 -194 77 -330 0 -89 -5 -133 -22 -193 -71 -248 -259 -436 -498 -497
-69 -18 -78 -18 -88 -5 -10 14 -16 14 -55 0 -54 -19 -77 -19 -165 0 -241 51
-452 260 -517 512 -25 97 -27 251 -5 346 88 379 461 618 822 527z m1084 -118
l0 -108 -190 -61 -190 -60 -45 90 c-25 50 -43 92 -41 95 5 4 444 149 459 151
4 1 7 -48 7 -107z m-1964 6 c-32 -46 -107 -174 -117 -203 -11 -28 -21 -34
-135 -69 -68 -22 -126 -37 -128 -35 -4 4 67 225 75 233 6 6 291 94 308 95 11
1 10 -4 -3 -21z m-941 -278 l333 -280 -8 -33 c-5 -17 -14 -58 -20 -89 l-11
-57 -310 260 c-296 249 -311 260 -342 254 -18 -4 -214 -54 -437 -112 l-405
-104 -77 83 c-42 46 -77 86 -78 90 0 8 -8 6 230 68 107 27 323 84 480 124 157
41 291 75 298 75 7 1 163 -125 347 -279z m2900 -46 l-6 -41 -147 -48 c-81 -26
-151 -49 -157 -51 -5 -2 -17 33 -27 78 -9 46 -19 90 -22 99 -5 12 24 25 156
68 90 28 172 56 183 60 19 8 20 4 23 -58 2 -36 1 -84 -3 -107z m-2930 -189
c164 -137 302 -253 307 -256 10 -6 -12 -189 -22 -189 -3 0 -134 107 -289 238
-156 130 -289 238 -296 240 -7 2 -160 -35 -341 -82 -181 -46 -336 -86 -345
-88 -11 -2 -42 29 -87 87 -39 49 -70 90 -69 91 2 3 297 79 782 205 17 4 37 7
46 6 9 -1 151 -114 314 -252z m821 220 c-6 -17 -34 -157 -38 -194 -3 -22 -16
-29 -135 -67 -106 -33 -133 -39 -133 -27 0 9 12 62 27 119 l27 105 121 39
c140 45 139 45 131 25z m2098 -187 c-13 -150 1 -134 -163 -189 -80 -27 -145
-48 -146 -47 -1 2 0 51 3 109 l4 106 142 45 c77 25 147 46 154 47 10 1 12 -15
6 -71z m-4264 2 c0 -4 -9 -10 -20 -13 -17 -4 -20 0 -20 25 0 30 0 31 20 13 11
-10 20 -21 20 -25z m110 -127 c47 -59 66 -89 57 -94 -19 -10 -197 -52 -202
-48 -2 3 -5 52 -6 109 -2 102 -1 105 22 111 50 14 59 9 129 -78z m1226 -159
l294 -246 -7 -76 c-10 -132 13 -141 -297 119 l-279 234 -266 -68 c-146 -37
-271 -68 -278 -67 -11 0 -122 152 -126 173 -2 9 605 174 647 176 11 1 144
-104 312 -245z m797 60 l7 -70 -93 -27 c-50 -14 -123 -35 -160 -46 -85 -25
-86 -23 -62 110 l18 99 116 35 c64 20 125 39 136 44 22 9 26 -4 38 -145z
m2093 -84 c-8 -50 -16 -93 -18 -95 -5 -5 -343 -134 -345 -132 -1 2 13 43 32
92 18 50 36 106 40 127 l7 36 146 50 c129 43 147 47 150 32 2 -9 -4 -59 -12
-110z m-3952 -35 c36 -49 61 -91 57 -93 -5 -2 -84 -23 -177 -47 -125 -32 -171
-41 -176 -32 -4 7 -8 32 -8 57 0 25 -3 68 -6 96 l-6 51 118 31 c66 16 122 29
126 28 5 0 37 -41 72 -91z m1056 -195 l280 -234 0 -103 c0 -57 -2 -103 -4
-103 -2 0 -129 105 -282 233 l-277 233 -206 -53 c-113 -29 -208 -49 -212 -45
-12 14 -100 164 -102 174 -2 12 465 138 500 135 13 -1 143 -103 303 -237z
m844 135 c10 -33 24 -72 32 -86 l13 -26 -197 -65 c-186 -61 -198 -64 -220 -49
-22 15 -23 20 -17 99 6 87 13 115 24 108 4 -3 81 17 171 44 91 26 168 45 171
42 3 -4 13 -34 23 -67z m1990 -177 c-20 -73 -36 -133 -37 -134 -1 0 -127 -45
-281 -98 -195 -68 -282 -94 -289 -87 -7 7 -2 17 19 32 50 37 198 193 224 236
24 39 33 43 205 111 99 38 183 70 187 71 4 1 -9 -59 -28 -131z m-3743 16 c31
-49 55 -91 53 -93 -4 -4 -457 -121 -460 -118 -6 6 -33 202 -28 206 8 9 357
100 369 97 5 -2 35 -43 66 -92z m926 -247 l261 -219 4 -106 c2 -59 3 -108 3
-109 0 -1 -128 105 -285 236 l-284 238 -143 -37 -144 -37 -44 81 c-62 114 -62
114 -28 122 15 4 100 26 188 49 l160 42 26 -21 c14 -12 143 -119 286 -239z
m922 207 c18 -31 47 -72 64 -91 16 -18 28 -35 26 -37 -7 -7 -517 -166 -530
-166 -8 1 -27 11 -43 24 l-28 24 7 101 7 102 22 -19 c21 -19 22 -19 226 48
113 37 207 68 210 69 3 0 20 -25 39 -55z m-1720 -175 c47 -85 58 -109 47 -109
-4 0 -244 -61 -431 -111 -69 -18 -112 -25 -115 -18 -8 11 -33 199 -28 203 2 1
109 30 238 63 129 34 236 62 237 62 1 1 24 -40 52 -90z m3530 -104 l-32 -105
-51 -19 c-28 -10 -136 -51 -239 -90 -103 -39 -190 -71 -192 -71 -6 0 -138 210
-134 214 2 1 22 13 44 25 l39 23 19 -26 c15 -21 22 -23 40 -15 75 33 533 185
535 178 2 -5 -11 -56 -29 -114z m-1631 66 c31 -27 79 -63 106 -80 32 -20 44
-32 35 -36 -42 -16 -751 -225 -761 -225 -7 0 -25 12 -40 25 -27 23 -28 27 -28
131 l0 108 28 -26 27 -25 275 88 c151 48 281 88 288 88 8 1 39 -21 70 -48z
m-1105 -250 c152 -128 277 -233 277 -234 0 -1 7 -51 15 -111 8 -61 13 -112 11
-114 -3 -3 -316 255 -586 484 -13 11 -30 9 -100 -11 -46 -13 -85 -23 -86 -22
-14 17 -94 191 -89 195 3 4 61 20 128 38 97 25 125 29 137 19 8 -6 140 -116
293 -244z m-670 54 c26 -52 47 -97 47 -99 0 -5 -32 -15 -369 -105 -145 -39
-265 -70 -267 -68 -2 1 -9 51 -17 111 -10 76 -11 109 -3 112 6 2 101 27 211
55 110 28 229 59 265 69 36 10 70 18 75 19 6 1 32 -42 58 -94z m2036 36 c87
-35 174 -53 279 -60 l103 -6 -628 -188 c-345 -103 -633 -187 -639 -187 -30 0
-43 37 -50 145 -7 109 -7 110 13 93 11 -10 26 -18 34 -18 8 0 192 54 409 120
217 65 403 119 412 119 10 1 40 -8 67 -18z m761 -116 c40 -63 78 -115 85 -115
6 0 100 34 210 76 261 99 255 97 261 92 6 -7 -66 -221 -80 -235 -18 -19 -379
-154 -388 -145 -5 5 -71 98 -148 207 l-139 200 57 20 c31 12 60 20 63 19 3 -2
39 -55 79 -119z m-79 -155 c84 -121 158 -220 164 -220 5 0 91 32 189 70 99 38
182 67 184 65 3 -2 -15 -60 -38 -129 l-43 -125 -106 -37 c-58 -20 -121 -43
-140 -51 -19 -7 -38 -10 -42 -6 -4 5 -107 150 -229 323 -220 314 -221 315
-193 321 15 4 44 7 64 8 35 1 36 0 190 -219z m-2056 -71 c165 -138 306 -256
313 -263 12 -12 65 -246 58 -254 -2 -2 -152 121 -332 272 -188 158 -335 274
-342 271 -57 -21 -57 -22 -100 81 -23 54 -41 99 -39 100 2 2 127 41 137 43 3
0 140 -112 305 -250z m1986 -88 c123 -177 229 -321 234 -321 6 0 70 22 143 49
103 38 132 45 127 33 -4 -10 -25 -67 -47 -129 l-40 -112 -77 -26 c-42 -15 -81
-29 -87 -31 -6 -3 -108 134 -227 303 -119 169 -222 316 -229 326 -12 17 -51 6
-633 -168 -341 -102 -627 -188 -637 -191 -13 -4 -19 11 -33 93 -9 54 -18 105
-19 114 -2 11 3 15 18 12 11 -1 302 82 646 185 344 104 627 188 631 186 3 -1
106 -147 230 -323z m-2540 159 c23 -55 40 -102 38 -104 -3 -4 -695 -206 -703
-206 -9 0 -28 222 -20 230 5 4 97 31 204 60 182 49 433 117 436 119 1 1 21
-44 45 -99z m602 -371 l347 -291 16 -56 c8 -31 27 -92 41 -135 14 -43 23 -80
22 -81 -2 -2 -170 137 -373 308 l-369 311 -38 105 c-22 58 -39 108 -39 112 0
5 15 12 41 17 3 0 162 -130 352 -290z m1942 -54 c120 -170 219 -312 221 -314
2 -2 42 10 89 26 47 17 84 25 82 19 -2 -6 -23 -64 -47 -128 -38 -106 -45 -118
-73 -128 -17 -5 -34 -7 -38 -3 -4 5 -104 148 -224 318 -119 171 -220 314 -225
318 -4 5 -279 -73 -610 -173 -332 -99 -605 -178 -608 -176 -5 6 -53 199 -49
201 1 1 281 85 622 187 465 139 623 183 632 174 6 -6 109 -150 228 -321z
m-2457 208 c49 -131 56 -115 -61 -144 -56 -15 -229 -59 -385 -99 -156 -39
-285 -70 -287 -69 -2 2 -5 44 -7 93 l-3 90 350 102 c193 56 353 103 357 103 3
1 20 -34 36 -76z m2462 -473 c117 -168 214 -307 216 -309 2 -2 17 2 34 8 25 8
31 8 28 -2 -3 -6 -17 -48 -33 -92 -16 -44 -31 -83 -34 -87 -3 -4 -102 130
-220 297 -117 168 -216 305 -220 305 -3 0 -260 -76 -571 -169 -310 -94 -565
-169 -566 -168 -10 11 -61 194 -56 198 4 4 270 86 592 182 544 163 586 174
601 159 9 -9 112 -154 229 -322z m-2373 219 c21 -68 27 -102 19 -105 -6 -2
-177 -44 -381 -93 -203 -50 -384 -95 -402 -100 -36 -10 -35 -12 -48 131 l-6
66 53 15 c29 9 163 43 298 77 135 34 283 73 330 85 47 13 90 24 95 24 6 1 25
-44 42 -100z m505 -226 c185 -155 346 -286 356 -292 15 -8 82 -165 82 -193 0
-11 -72 -28 -84 -21 -6 4 -153 126 -326 271 l-315 265 -16 56 c-9 31 -28 93
-42 139 -22 70 -23 81 -9 70 9 -7 169 -140 354 -295z m-452 45 c6 -24 18 -69
27 -101 9 -32 14 -60 11 -62 -2 -2 -197 -51 -434 -108 l-429 -103 -6 31 c-4
16 -9 64 -13 106 l-5 75 237 58 c130 32 314 78 407 101 94 24 175 43 182 44 7
1 17 -18 23 -41z m2290 -253 c113 -162 209 -301 214 -309 10 -15 -21 -136 -34
-136 -4 0 -89 117 -189 260 -100 143 -186 260 -190 260 -4 0 -241 -70 -526
-155 -285 -86 -519 -154 -521 -152 -7 7 -75 189 -72 193 5 4 1090 332 1103
333 6 0 102 -132 215 -294z m-1795 -86 c154 -129 287 -240 296 -246 13 -11 26
-10 65 2 27 8 50 15 51 15 4 0 93 -193 91 -195 -2 -1 -38 -11 -80 -23 -42 -12
-83 -24 -90 -27 -8 -3 -135 97 -303 237 l-289 243 -21 100 c-12 55 -25 113
-29 130 -7 28 -7 29 11 14 10 -9 144 -122 298 -250z m-446 118 c12 -15 63
-248 55 -256 -2 -2 -18 8 -34 24 -29 28 -32 28 -78 17 -222 -55 -786 -192
-792 -192 -5 0 -11 35 -15 78 -3 42 -8 91 -10 107 l-5 31 237 57 c131 31 319
77 418 101 204 50 208 51 224 33z m2222 -265 l186 -266 -19 -58 c-11 -32 -23
-58 -26 -57 -4 0 -74 95 -157 211 -82 116 -155 212 -161 215 -6 2 -209 -55
-450 -128 -241 -72 -452 -135 -467 -140 -28 -8 -29 -7 -74 87 -25 53 -43 97
-41 98 5 5 1002 304 1013 305 6 0 94 -120 196 -267z m-1741 -141 c135 -112
252 -210 261 -218 13 -11 31 -9 114 17 53 16 101 30 105 30 10 0 103 -180 97
-187 -3 -2 -70 -24 -148 -48 -113 -34 -147 -40 -159 -31 -78 56 -504 424 -510
440 -5 12 -14 57 -20 101 -6 44 -14 91 -17 105 -8 30 -38 54 277 -209z m-454
121 c44 -39 52 -66 70 -217 l7 -60 -58 49 -57 49 -387 -88 c-212 -49 -398 -90
-412 -93 -25 -4 -26 -2 -32 59 -13 119 -10 138 21 146 250 64 772 191 787 191
11 1 39 -16 61 -36z m2167 -193 l157 -220 -17 -64 c-9 -36 -20 -65 -24 -65 -3
0 -62 77 -130 171 -68 94 -129 173 -135 176 -7 2 -195 -50 -419 -117 -330 -99
-409 -120 -417 -109 -23 35 -89 172 -84 176 6 6 886 272 901 272 6 0 81 -99
168 -220z m-1688 -209 c121 -101 227 -189 235 -196 13 -11 42 -5 179 36 91 28
165 49 166 47 50 -80 105 -180 102 -184 -3 -2 -99 -33 -214 -68 -161 -48 -211
-60 -222 -51 -8 6 -118 98 -245 204 l-231 193 -12 87 c-6 48 -12 100 -12 116
-1 27 0 28 17 14 9 -8 116 -97 237 -198z m-460 128 l64 -53 6 -75 c3 -41 9
-93 12 -115 6 -45 13 -48 -85 34 l-53 44 -72 -16 c-40 -9 -220 -52 -400 -95
-180 -44 -329 -76 -331 -73 -5 8 -19 221 -14 221 1 0 176 41 388 89 212 49
393 90 403 90 10 1 47 -23 82 -51z m2121 -141 l131 -182 -16 -67 c-9 -38 -18
-68 -21 -68 -3 0 -50 61 -105 136 -54 75 -104 138 -111 141 -7 3 -167 -41
-355 -97 -277 -83 -343 -100 -350 -89 -35 54 -101 171 -98 173 6 6 763 234
779 235 9 0 72 -78 146 -182z m-1668 -239 c119 -100 226 -189 237 -199 19 -17
29 -15 250 52 126 38 232 66 235 61 22 -26 112 -173 109 -176 -3 -4 -533 -164
-560 -170 -7 -1 -465 379 -474 394 -6 10 -23 220 -17 220 1 0 101 -82 220
-182z m-444 112 l73 -60 7 -106 c4 -59 5 -108 4 -110 -2 -1 -35 24 -73 56 -39
33 -77 59 -85 60 -8 0 -184 -43 -390 -95 -206 -52 -375 -93 -376 -92 -5 4 -26
218 -22 222 1 1 111 29 243 60 132 32 301 72 375 90 74 18 143 34 153 34 10 1
51 -26 91 -59z m2066 -67 c47 -64 95 -131 107 -147 21 -31 21 -31 4 -110 l-17
-80 -84 121 c-46 67 -89 119 -95 117 -5 -2 -125 -38 -265 -79 -140 -42 -260
-77 -266 -79 -10 -4 -140 172 -132 179 6 5 633 193 648 194 9 1 53 -51 100
-116z m-2057 -199 l77 -65 -1 -77 c-1 -42 -4 -87 -7 -99 -7 -21 -11 -19 -72
32 -36 30 -74 55 -85 54 -11 0 -180 -37 -375 -84 -195 -46 -358 -80 -362 -77
-3 4 -9 50 -13 102 l-7 95 359 91 c197 50 369 92 383 93 17 0 49 -19 103 -65z
m511 -170 c106 -88 185 -148 195 -146 9 2 142 42 296 88 154 46 285 84 290 83
6 0 38 -39 73 -87 54 -76 60 -88 45 -94 -53 -22 -696 -209 -708 -206 -8 2
-118 90 -245 196 l-230 193 0 106 0 105 53 -44 c28 -24 132 -111 231 -194z
m1546 106 l81 -115 -7 -55 c-10 -89 -14 -89 -79 -8 -32 40 -61 76 -64 80 -3 4
-94 -20 -201 -53 -107 -32 -196 -59 -197 -59 -5 0 -123 159 -125 170 -3 14
462 161 494 157 9 -1 53 -54 98 -117z m-1992 -296 c1 -27 -1 -73 -5 -102 l-8
-53 -65 54 -64 54 -301 -77 c-165 -43 -326 -84 -357 -93 l-57 -15 -6 32 c-12
71 -23 191 -19 196 3 3 168 44 367 91 l362 85 75 -62 c73 -60 75 -63 78 -110z
m408 -37 c116 -98 217 -177 225 -177 7 0 180 50 384 111 l370 110 28 -33 c15
-18 48 -58 72 -89 l44 -56 -444 -133 c-244 -73 -448 -131 -453 -129 -6 2 -117
93 -248 203 l-236 199 6 51 c3 28 6 73 6 100 0 46 1 48 18 34 9 -8 112 -94
228 -191z m1564 116 l71 -88 -6 -60 c-3 -33 -9 -75 -13 -94 l-7 -33 -49 71
c-27 39 -50 71 -50 71 -1 0 -50 -15 -111 -34 -60 -19 -113 -32 -117 -30 -13 8
-127 151 -130 163 -2 8 56 30 161 62 91 27 167 51 169 54 9 8 9 8 82 -82z
m-2041 -234 l53 -44 -6 -95 c-4 -51 -9 -96 -11 -98 -2 -3 -28 16 -57 42 -30
26 -59 44 -68 41 -8 -3 -162 -38 -342 -78 l-328 -73 -5 30 c-8 43 -23 161 -21
162 0 1 100 27 221 58 121 31 279 71 350 90 103 27 133 31 145 21 8 -6 39 -31
69 -56z m478 -142 c116 -98 217 -177 224 -177 7 0 217 61 468 137 l455 136 49
-54 c61 -67 101 -119 96 -123 -10 -8 -1060 -317 -1068 -314 -5 1 -119 95 -254
208 l-245 205 4 40 c2 22 6 66 10 98 l6 59 21 -19 c12 -11 117 -99 234 -196z
m1552 119 l51 -74 0 -86 c0 -47 -3 -86 -7 -86 -5 0 -26 25 -47 55 -32 45 -43
54 -61 49 -18 -4 -36 9 -95 74 -40 44 -73 83 -74 87 -1 9 165 64 175 59 3 -2
29 -37 58 -78z m-1330 -556 c10 0 797 234 996 296 l110 34 77 -82 c43 -46 77
-86 78 -89 0 -5 -1236 -379 -1253 -379 -4 0 -126 99 -270 220 l-263 220 13 93
c6 50 12 93 12 95 1 2 111 -89 246 -202 134 -114 249 -206 254 -206z m-728
344 c30 -26 55 -47 57 -49 3 -2 -18 -154 -24 -173 -3 -9 -15 -4 -41 17 l-38
30 -319 -80 c-176 -43 -323 -79 -326 -79 -8 0 -35 219 -28 225 3 3 601 143
659 154 3 1 30 -20 60 -45z m472 -396 c136 -114 251 -208 255 -208 7 0 1227
363 1260 375 7 3 35 -30 67 -78 54 -81 55 -84 65 -186 6 -58 14 -109 17 -114
3 -6 2 -7 -4 -4 -6 4 -34 43 -63 87 -37 56 -58 80 -69 77 -9 -2 -298 -88 -642
-192 l-626 -187 -276 232 c-152 127 -279 235 -282 240 -5 8 11 140 20 168 3 8
10 10 17 6 7 -5 124 -102 261 -216z m-487 148 l38 -33 -13 -79 c-14 -86 -23
-103 -43 -86 -10 8 -89 -8 -308 -63 -162 -41 -300 -75 -306 -75 -8 0 -38 155
-39 204 0 6 553 152 626 165 3 1 23 -14 45 -33z m2122 -61 c-3 -3 -13 7 -23
22 l-17 28 23 -22 c12 -12 20 -25 17 -28z m-1391 -549 c10 -5 1173 334 1265
369 13 5 34 -20 89 -101 71 -106 73 -110 99 -236 14 -70 25 -128 24 -128 -1 0
-41 57 -89 126 -74 106 -91 125 -109 120 -12 -3 -299 -89 -640 -191 -340 -101
-623 -182 -630 -178 -6 4 -144 119 -308 256 l-296 248 8 32 c5 18 14 58 20 89
l11 58 272 -228 c150 -125 278 -231 284 -236z m-752 370 c18 -13 18 -16 0
-100 -10 -48 -23 -93 -29 -100 -9 -11 -545 -132 -551 -124 -4 5 -32 183 -29
187 2 2 561 146 585 150 3 1 14 -5 24 -13z m460 -386 c164 -137 300 -250 302
-250 2 0 290 86 639 191 350 104 637 189 638 187 218 -309 216 -305 257 -443
21 -72 46 -148 54 -169 9 -21 15 -39 13 -41 -2 -2 -70 94 -153 212 -82 119
-155 217 -161 220 -8 3 -764 -220 -1265 -372 -10 -4 -130 90 -340 266 -178
149 -326 276 -328 282 -5 13 31 167 39 167 4 0 141 -112 305 -250z m-526 19
c-17 -63 -32 -115 -33 -116 -2 -2 -422 -103 -430 -103 -3 0 -33 160 -39 209
-2 11 62 28 263 71 146 32 266 56 267 55 2 -1 -11 -53 -28 -116z m206 -8 c26
-24 561 -473 606 -509 13 -10 123 20 653 179 351 105 639 189 640 187 1 -1 87
-123 190 -270 165 -236 194 -283 247 -405 33 -76 63 -145 66 -155 6 -21 -36
-37 -48 -17 -32 56 -442 629 -450 629 -8 0 -1232 -364 -1264 -377 -9 -3 -226
175 -694 570 l-33 27 23 85 c12 47 25 85 28 85 3 0 19 -13 36 -29z m-255 -160
c0 -22 -63 -217 -73 -227 -14 -13 -284 -81 -291 -73 -9 9 -47 202 -40 208 4 5
365 95 397 100 4 1 7 -3 7 -8z m502 -308 c189 -157 350 -292 359 -299 13 -12
113 16 652 178 351 105 639 189 641 187 2 -3 445 -637 452 -647 1 -2 16 4 33
13 18 9 35 14 40 11 17 -11 84 -177 75 -185 -5 -4 -35 -18 -67 -31 -50 -20
-60 -21 -72 -9 -8 8 -110 151 -228 319 -200 284 -216 305 -243 304 -96 -5
-129 -11 -1119 -220 -115 -24 -220 -46 -232 -49 -18 -4 -87 48 -353 270 -181
151 -330 278 -330 282 0 10 44 163 47 163 1 0 157 -129 345 -287z m-91 -180
c188 -157 304 -260 296 -264 -6 -3 -43 -12 -82 -19 -38 -7 -80 -17 -93 -21
-20 -8 -47 12 -224 167 l-200 177 -47 -11 c-25 -6 -47 -10 -48 -9 -3 4 80 237
84 237 3 0 144 -116 314 -257z m-502 195 c0 -7 -17 -58 -37 -113 l-37 -100
-73 -19 c-40 -10 -74 -17 -77 -14 -5 5 -45 192 -42 195 5 4 233 61 250 62 9 1
17 -5 16 -11z m394 -375 c111 -97 206 -180 211 -184 8 -8 40 -218 33 -225 -1
-2 -45 33 -97 78 -52 45 -150 128 -218 186 l-124 105 -96 -16 c-53 -9 -97 -15
-99 -13 -2 2 76 215 83 225 4 5 64 19 87 20 11 1 105 -75 220 -176z m2075
-153 c123 -176 227 -322 230 -324 4 -2 44 11 89 29 l82 33 29 -76 c16 -43 32
-86 35 -97 6 -18 -6 -25 -103 -63 -60 -24 -114 -41 -119 -38 -5 3 -109 149
-232 325 -207 295 -225 318 -246 310 -20 -7 -24 -5 -29 19 -3 15 -15 61 -25
104 -23 93 -24 86 4 91 60 12 54 18 285 -313z m-2601 166 c-23 -58 -45 -99
-48 -93 -12 22 -39 160 -33 166 5 6 86 27 111 30 6 0 -7 -44 -30 -103z m2251
-123 c98 -441 142 -788 142 -1116 0 -503 -110 -787 -348 -900 -65 -31 -72 -32
-197 -32 l-130 0 -88 43 c-311 152 -549 617 -697 1362 -40 203 -88 535 -79
545 7 6 1304 282 1335 284 19 1 24 -15 62 -186z m-1718 -149 c113 -96 215
-185 227 -197 16 -16 26 -47 38 -117 8 -52 18 -108 21 -124 5 -24 -31 3 -241
185 l-247 213 -157 -31 c-86 -17 -158 -29 -160 -28 -2 2 20 57 48 122 l50 118
78 17 c134 28 114 38 343 -158z m2000 -56 c85 -122 188 -267 227 -324 l73
-103 122 50 c67 27 124 47 126 44 6 -6 63 -208 59 -210 -1 -1 -67 -24 -146
-50 -144 -48 -145 -48 -161 -27 -9 11 -110 154 -225 317 l-208 296 -23 107
c-28 126 -27 122 -11 122 6 0 82 -100 167 -222z m-1935 -263 c127 -109 231
-199 233 -200 5 -5 52 -220 49 -228 -1 -4 -126 95 -277 221 l-274 229 -129
-27 c-86 -18 -130 -23 -133 -16 -9 29 -46 198 -42 200 1 1 68 16 148 33 l145
30 25 -22 c14 -12 129 -111 255 -220z m2025 -125 c112 -159 209 -290 215 -290
6 0 78 22 160 49 83 27 151 49 151 48 9 -10 39 -199 33 -203 -4 -2 -81 -29
-170 -60 -132 -44 -165 -52 -175 -42 -6 7 -95 132 -197 278 l-186 265 -16 105
c-9 58 -19 113 -21 123 -3 9 -4 17 -1 17 2 0 95 -130 207 -290z m-1986 -155
c264 -220 265 -220 281 -275 9 -30 28 -94 43 -142 15 -49 26 -88 25 -88 -2 0
-151 123 -330 274 l-327 273 -85 -28 c-47 -16 -90 -29 -97 -29 -12 0 -71 216
-62 225 3 3 56 16 119 28 l114 24 27 -21 c14 -12 146 -120 292 -241z m2011
-140 c99 -140 184 -255 191 -255 6 0 89 27 183 60 120 41 173 56 176 47 9 -28
23 -193 17 -199 -6 -5 -357 -128 -368 -128 -1 0 -83 114 -180 253 -163 232
-178 256 -185 307 -10 79 -18 170 -15 170 2 0 83 -115 181 -255z m-1965 -163
l335 -280 31 -79 c17 -43 43 -104 58 -136 21 -47 23 -59 12 -63 -12 -5 -413
323 -777 632 -13 12 -24 10 -69 -6 -30 -11 -60 -20 -66 -20 -6 0 -23 45 -36
100 l-25 99 86 29 c69 24 89 27 101 17 8 -6 166 -138 350 -293z m1981 -118
c88 -126 164 -230 170 -232 5 -2 94 26 198 62 l189 65 6 -31 c3 -17 6 -69 6
-117 l0 -86 -182 -54 c-101 -30 -188 -56 -195 -59 -6 -2 -91 102 -187 231
l-176 234 0 113 c0 62 2 111 5 108 3 -3 77 -108 166 -234z m-1942 -173 c356
-298 376 -313 402 -304 26 10 28 8 83 -80 31 -50 53 -94 49 -98 -5 -3 -40 -16
-80 -28 l-71 -22 -389 326 c-262 219 -393 323 -403 319 -45 -19 -45 -18 -73
82 -15 53 -25 99 -22 103 4 3 27 13 53 22 35 12 51 14 62 5 8 -6 183 -152 389
-325z m1951 -114 c85 -114 159 -207 165 -207 5 0 96 27 200 58 l190 59 3 -95
c2 -68 -1 -99 -10 -107 -7 -7 -87 -37 -178 -68 -91 -30 -172 -58 -181 -61 -12
-5 -58 58 -196 266 l-180 273 5 60 c3 47 6 56 16 44 6 -9 81 -109 166 -222z
m-1960 -138 c201 -168 371 -309 378 -313 7 -4 54 6 107 24 l94 31 33 -38 c18
-21 53 -57 77 -80 25 -23 43 -44 40 -46 -2 -2 -78 -29 -168 -61 -149 -51 -166
-55 -185 -42 -12 8 -183 151 -381 318 l-359 303 -34 105 c-31 98 -32 105 -16
117 14 10 21 10 33 0 9 -6 180 -149 381 -318z m1950 -79 c90 -135 164 -247
166 -249 2 -2 90 26 196 62 106 36 194 64 196 62 8 -8 -31 -225 -42 -233 -6
-5 -78 -30 -160 -56 -81 -26 -154 -50 -160 -52 -7 -3 -96 116 -209 279 l-196
285 10 68 c14 87 18 100 28 88 5 -5 82 -119 171 -254z m-1931 -194 c185 -155
343 -287 352 -294 14 -10 46 -2 195 49 99 33 186 63 195 66 9 2 37 -9 64 -26
69 -44 164 -72 266 -80 l90 -6 -383 -114 c-211 -63 -388 -116 -393 -118 -15
-5 -641 521 -648 544 -3 10 -26 76 -51 146 -25 71 -41 125 -34 121 6 -4 163
-134 347 -288z m1906 -38 c103 -150 189 -275 191 -276 1 -2 80 21 174 51 l172
55 -6 -31 c-4 -18 -18 -69 -33 -114 l-26 -83 -56 -21 c-31 -11 -90 -34 -132
-49 l-76 -28 -222 324 -221 324 17 60 c10 33 21 60 24 60 3 0 90 -123 194
-272z m-30 -213 c120 -176 219 -321 221 -323 1 -2 58 17 126 41 67 25 125 43
127 41 5 -5 -61 -136 -99 -197 -22 -35 -44 -54 -85 -74 -30 -15 -56 -25 -58
-22 -2 2 -104 147 -227 322 -255 364 -207 329 -369 278 l-86 -27 80 80 c51 51
93 104 114 144 18 35 34 62 35 60 2 -2 101 -147 221 -323z m-1809 -65 c147
-124 275 -231 285 -237 15 -11 118 17 654 178 350 105 638 189 639 187 1 -1
103 -147 226 -323 123 -176 225 -321 226 -323 1 -2 17 4 34 13 l32 17 -28 -36
c-16 -20 -46 -50 -66 -66 l-37 -30 -183 261 c-101 144 -188 263 -194 266 -8 3
-1200 -348 -1269 -374 -6 -2 -109 80 -228 182 l-217 186 -47 92 c-69 138 -114
239 -104 235 5 -2 129 -104 277 -228z m1758 -387 l179 -257 -33 -28 c-19 -15
-40 -28 -46 -28 -7 0 -68 77 -136 171 -67 94 -128 174 -135 176 -6 2 -273 -74
-592 -170 l-581 -174 -68 46 c-117 78 -337 316 -394 425 l-11 21 24 -21 c19
-16 223 -189 319 -270 14 -11 116 16 645 176 347 104 635 189 640 189 6 0 91
-115 189 -256z m-64 -164 c63 -88 116 -164 118 -169 5 -13 -98 -62 -193 -94
-139 -47 -248 -60 -485 -60 -185 0 -229 3 -318 22 -111 24 -227 64 -307 104
l-49 25 69 23 c179 56 1022 308 1035 309 8 0 66 -70 130 -160z"/>
<path d="M4005 9510 c-295 -63 -502 -333 -482 -629 16 -242 165 -440 396 -528
89 -34 247 -43 341 -19 221 55 391 225 446 446 22 88 15 251 -16 337 -59 170
-200 310 -371 370 -81 28 -237 40 -314 23z m210 -234 c107 -28 188 -94 237
-194 30 -61 33 -74 33 -162 0 -87 -3 -101 -32 -161 -61 -123 -173 -198 -308
-207 -281 -18 -476 268 -356 524 76 162 255 246 426 200z"/>
<path d="M3336 3169 c-313 -65 -570 -120 -572 -121 -4 -6 37 -308 61 -443 101
-562 269 -974 475 -1168 148 -140 315 -180 487 -115 77 28 176 127 219 218 68
143 94 303 94 575 -1 303 -38 598 -129 1006 -35 156 -39 169 -55 168 -6 -1
-267 -54 -580 -120z m583 29 c207 -876 198 -1534 -24 -1763 -67 -68 -140 -99
-247 -103 -137 -6 -234 36 -346 149 -217 219 -393 725 -482 1383 -11 82 -17
152 -14 155 5 6 1052 227 1085 230 11 1 19 -14 28 -51z"/>
</g>
</svg>
