<?xml version="1.0" standalone="no"?>
<!DOCTYPE svg PUBLIC "-//W3C//DTD SVG 20010904//EN"
 "http://www.w3.org/TR/2001/REC-SVG-20010904/DTD/svg10.dtd">
<svg version="1.0" xmlns="http://www.w3.org/2000/svg"
 width="1280.000000pt" height="960.000000pt" viewBox="0 0 1280.000000 960.000000"
 preserveAspectRatio="xMidYMid meet">
<metadata>
Created by potrace 1.15, written by Peter Selinger 2001-2017
</metadata>
<g transform="translate(0.000000,960.000000) scale(0.100000,-0.100000)"
fill="#000000" stroke="none">
<path d="M2245 9194 c-491 -50 -909 -318 -1207 -774 -168 -257 -283 -568 -334
-905 -25 -166 -25 -514 -1 -675 40 -254 101 -455 201 -665 159 -330 356 -568
624 -753 209 -144 413 -222 677 -257 171 -24 336 -68 434 -116 97 -48 196
-141 324 -304 65 -84 96 -138 192 -339 l115 -239 -36 -39 c-102 -113 -173
-412 -153 -641 21 -228 104 -392 246 -484 71 -45 205 -88 338 -108 61 -9 119
-20 131 -25 24 -9 30 -36 44 -199 21 -236 80 -286 238 -205 69 36 340 232 375
272 31 35 18 64 -43 96 -107 56 -149 87 -185 140 -29 43 -35 58 -27 72 6 11
13 39 17 64 5 37 3 50 -13 70 l-19 24 27 22 c21 18 64 30 201 54 184 33 425
88 498 114 24 9 47 16 51 16 4 0 10 -84 13 -187 10 -289 43 -479 128 -736 173
-528 542 -1009 1014 -1324 368 -246 766 -387 1224 -434 144 -15 499 -6 634 16
599 95 1107 357 1517 781 370 383 601 846 685 1374 8 52 15 111 15 130 0 62 3
63 141 40 298 -49 555 -49 721 -1 101 29 258 103 322 151 l57 43 47 -21 c26
-12 60 -23 75 -24 26 -3 40 -23 140 -193 264 -447 367 -554 455 -472 13 12 29
35 36 51 l11 28 60 -50 c65 -54 130 -92 157 -92 54 0 108 69 108 139 0 30 2
33 23 26 12 -4 40 -9 62 -12 54 -6 88 27 87 86 -1 46 -18 82 -78 167 l-43 61
42 -4 c52 -6 70 10 69 66 -2 98 -117 231 -384 445 -82 65 -148 120 -148 123 0
3 28 35 61 71 124 135 165 227 135 306 -32 83 -99 116 -185 90 -55 -16 -107
-51 -207 -140 l-70 -63 -45 10 c-91 21 -211 -14 -266 -78 -29 -35 -36 -37 -90
-39 -79 -1 -110 -18 -125 -66 -10 -35 -16 -40 -87 -67 -311 -118 -452 -129
-911 -70 -91 12 -168 26 -172 33 -4 6 -8 24 -8 40 0 41 -45 256 -75 360 -127
437 -392 865 -722 1162 l-98 88 -11 77 c-22 143 -75 223 -232 347 -101 80
-122 92 -155 92 -26 0 -46 -19 -71 -67 -22 -43 -20 -85 4 -116 26 -33 25 -41
-2 -23 -72 47 -406 177 -526 206 -44 10 -52 15 -45 29 4 9 8 43 7 75 0 52 -4
62 -29 84 -25 21 -35 24 -79 18 -99 -12 -267 -55 -330 -85 -64 -31 -65 -31
-237 -31 -424 0 -800 -88 -1179 -276 -266 -132 -503 -306 -715 -525 -266 -275
-444 -565 -584 -950 -7 -20 -56 -49 -248 -146 -349 -177 -493 -224 -639 -208
-55 6 -65 10 -69 28 -2 12 -9 46 -15 75 -20 105 -69 167 -141 178 l-37 6 24
52 c44 94 24 161 -63 217 -60 38 -132 59 -199 59 l-52 0 -60 143 c-33 78 -74
178 -91 222 -17 44 -37 91 -45 105 -12 22 -20 82 -41 285 -8 85 15 256 60 432
25 98 47 185 48 194 2 9 29 50 60 92 209 277 344 600 408 972 26 153 36 476
20 636 -41 399 -184 782 -406 1091 -93 130 -310 341 -438 426 -180 120 -382
204 -572 237 -92 16 -288 26 -360 19z m305 -112 c20 -8 11 -13 -70 -46 -73
-29 -95 -34 -101 -24 -5 7 -9 16 -9 20 0 4 -5 19 -10 34 -17 44 -21 21 -5 -26
8 -24 14 -45 12 -47 -13 -12 -262 -102 -267 -96 -6 7 -60 148 -60 157 0 5 111
28 178 36 78 10 298 5 332 -8z m112 -122 c34 -103 35 -111 18 -120 -33 -18
-203 -90 -206 -87 -5 5 -84 230 -81 233 7 7 204 83 217 83 11 1 26 -32 52
-109z m74 79 c97 -30 120 -44 133 -79 l10 -31 -76 -35 c-42 -19 -81 -33 -87
-31 -9 4 -66 169 -66 191 0 10 15 7 86 -15z m-695 -26 c6 -21 20 -59 30 -85
l18 -46 -127 -51 c-70 -28 -131 -51 -137 -51 -10 0 -71 158 -63 164 18 17 232
105 255 106 6 0 17 -17 24 -37z m374 -140 c21 -60 40 -113 42 -119 3 -9 -234
-124 -257 -124 -7 0 -90 217 -90 236 0 7 236 109 261 113 4 1 23 -47 44 -106z
m504 93 c24 -14 24 -14 3 -20 -26 -8 -42 -1 -42 20 0 17 8 17 39 0z m187 -112
c122 -86 192 -155 194 -189 0 -10 -247 -131 -254 -124 -3 3 -60 148 -143 366
-3 6 8 18 24 27 26 14 31 13 73 -11 25 -14 73 -45 106 -69z m-1332 4 c14 -40
26 -77 26 -83 0 -10 -218 -101 -225 -94 -2 2 -12 28 -23 56 l-20 53 36 29 c45
35 163 111 172 111 4 0 19 -33 34 -72z m1185 -133 c39 -101 71 -188 71 -192 0
-4 -41 -27 -90 -49 l-89 -42 -11 32 c-37 103 -120 350 -120 358 0 9 135 76
156 77 6 1 43 -82 83 -184z m-821 15 c23 -63 38 -118 34 -122 -9 -8 -255 -119
-257 -115 -5 7 -89 253 -88 256 3 9 258 107 264 102 3 -4 25 -58 47 -121z
m633 -108 l66 -199 -107 -50 -107 -50 -72 200 c-39 110 -70 201 -69 203 7 6
204 92 213 93 6 1 40 -88 76 -197z m-1229 90 c10 -25 14 -49 10 -53 -11 -10
-224 -90 -229 -86 -2 2 40 48 93 101 54 53 100 94 103 91 3 -3 13 -27 23 -53z
m315 -97 c24 -65 43 -122 43 -126 0 -6 -204 -99 -219 -99 -8 0 -106 259 -99
264 15 11 206 84 217 83 9 -1 32 -50 58 -122z m682 -99 c39 -110 70 -200 69
-201 -31 -20 -259 -121 -263 -116 -17 28 -143 397 -137 403 8 7 256 118 259
115 1 -1 33 -92 72 -201z m-924 -4 c26 -73 46 -134 44 -136 -10 -7 -286 -126
-298 -128 -9 -2 -28 35 -57 112 -49 132 -51 141 -25 164 15 13 283 128 287
123 1 -1 22 -62 49 -135z m1849 -17 c29 -38 61 -82 71 -97 l17 -27 -52 -26
c-29 -15 -54 -25 -56 -23 -11 12 -121 314 -117 322 7 10 55 -43 137 -149z
m-108 13 c25 -68 53 -138 60 -157 8 -18 14 -35 14 -37 0 -5 -253 -125 -255
-122 -1 2 -29 74 -62 162 l-62 158 122 58 c67 33 125 59 129 59 3 1 28 -54 54
-121z m-1163 70 c41 -109 138 -390 135 -393 -10 -10 -253 -124 -256 -120 -5 5
-151 409 -148 412 5 6 243 111 252 112 7 1 14 -5 17 -11z m909 -233 c32 -82
57 -153 56 -157 -2 -4 -45 -28 -96 -53 l-93 -45 -10 28 c-24 61 -99 285 -99
294 0 11 161 89 175 85 5 -2 35 -70 67 -152z m-1812 15 c22 -62 39 -118 37
-123 -5 -16 -261 -126 -268 -115 -3 5 -9 1 -12 -11 -2 -11 -2 -21 2 -23 4 -2
40 -95 80 -208 41 -113 76 -211 78 -218 4 -8 -42 -35 -128 -77 l-134 -64 -28
82 -28 82 26 100 c36 135 86 268 152 400 52 104 172 300 179 293 2 -2 21 -55
44 -118z m634 68 c9 -24 43 -117 75 -208 l60 -165 -111 -54 c-87 -43 -112 -51
-119 -40 -8 14 -136 373 -141 397 -2 8 38 32 102 62 58 26 108 49 112 49 3 1
13 -18 22 -41z m975 -182 c28 -82 51 -152 51 -157 0 -7 -185 -99 -200 -99 -4
0 -31 66 -60 148 -29 81 -55 153 -58 160 -5 14 198 115 210 104 4 -4 29 -74
57 -156z m-1196 17 c20 -54 54 -149 76 -211 l41 -113 -147 -70 c-81 -39 -151
-71 -156 -72 -8 -2 -157 395 -157 419 0 9 280 143 301 144 4 0 23 -44 42 -97z
m1937 -44 c27 -53 50 -98 50 -101 0 -7 -139 -72 -143 -67 -7 8 -98 251 -95
254 2 1 26 14 53 28 l50 26 17 -22 c9 -12 40 -65 68 -118z m-965 -81 c41 -115
54 -163 45 -166 -6 -2 -66 -31 -131 -63 -82 -40 -121 -55 -124 -46 -3 6 -30
80 -60 162 l-54 150 127 62 c70 34 130 63 133 63 3 0 32 -73 64 -162z m855
-90 c0 -8 -142 -82 -212 -111 l-37 -16 -50 127 -50 127 127 62 127 61 47 -121
c27 -67 48 -125 48 -129z m-2111 -44 c39 -111 71 -206 71 -212 0 -9 -242 -132
-260 -132 -11 0 -163 430 -155 438 14 15 260 120 266 114 3 -4 38 -98 78 -208z
m939 114 c50 -135 95 -269 91 -272 -7 -6 -182 -93 -220 -109 l-37 -15 -57 159
c-32 88 -56 162 -53 164 6 6 242 124 250 124 4 1 15 -23 26 -51z m863 -81 l48
-122 -100 -49 c-55 -26 -102 -46 -104 -44 -2 2 -24 60 -49 130 l-44 126 96 45
c53 25 99 44 101 41 3 -2 26 -59 52 -127z m489 36 c20 -45 80 -213 80 -226 0
-12 -128 -82 -136 -75 -1 2 -25 61 -52 131 l-50 128 66 34 c37 19 70 34 73 35
3 0 12 -12 19 -27z m-705 -128 c21 -60 40 -116 43 -123 3 -7 -34 -31 -99 -62
-57 -27 -104 -48 -106 -46 -1 1 -23 60 -48 130 l-45 127 102 49 c57 27 105 46
109 42 3 -4 23 -56 44 -117z m-881 -74 c31 -85 54 -156 53 -158 -5 -4 -215
-103 -220 -103 -3 0 -31 73 -63 162 -39 111 -54 163 -46 166 7 2 56 25 110 52
53 26 100 45 104 41 4 -3 32 -75 62 -160z m1466 23 c28 -70 47 -131 42 -135
-4 -4 -60 -32 -125 -62 -116 -55 -118 -56 -126 -34 -76 193 -92 239 -88 244 8
8 242 121 245 118 1 -1 25 -60 52 -131z m-841 39 c28 -71 81 -226 78 -229 -7
-7 -260 -125 -262 -122 -1 2 -22 59 -47 128 l-45 125 126 62 c69 35 129 63
132 63 4 0 11 -12 18 -27z m-866 -170 c31 -87 53 -161 49 -164 -4 -4 -73 -39
-154 -77 l-147 -70 -9 26 c-54 146 -102 285 -102 293 0 10 274 147 296 148 6
1 36 -70 67 -156z m1440 13 c26 -67 47 -128 47 -134 0 -9 -181 -102 -200 -102
-12 0 -102 264 -91 268 6 2 50 23 98 47 48 24 90 44 93 44 3 1 26 -55 53 -123z
m-817 -72 c24 -65 44 -122 44 -127 0 -12 -253 -128 -260 -120 -11 13 -91 245
-86 250 11 12 242 121 250 119 5 -1 29 -56 52 -122z m1328 -25 c14 -64 26
-118 26 -121 0 -8 -100 -52 -105 -46 -9 8 -97 240 -93 243 2 2 32 17 68 34 48
23 66 27 71 18 4 -6 19 -64 33 -128z m-756 59 c69 -189 76 -212 64 -216 -6 -2
-53 -24 -103 -48 -50 -25 -93 -43 -95 -42 -9 9 -93 262 -89 266 9 10 180 90
192 91 6 1 20 -23 31 -51z m-1515 -136 c30 -84 50 -155 45 -158 -24 -15 -250
-124 -257 -124 -4 0 -12 15 -18 33 -6 17 -32 90 -57 160 l-46 128 133 64 c72
35 135 61 138 57 4 -4 31 -76 62 -160z m2132 18 c33 -85 44 -125 36 -128 -7
-2 -62 -29 -123 -59 -61 -29 -114 -50 -118 -46 -9 10 -90 221 -90 235 0 8 241
130 247 124 0 0 22 -57 48 -126z m-1467 -37 c22 -65 42 -124 44 -131 2 -8 -41
-34 -109 -66 l-111 -54 -47 131 c-25 73 -42 133 -38 134 4 2 53 25 108 52 55
27 102 50 105 50 3 1 25 -52 48 -116z m656 -25 c25 -72 43 -135 39 -138 -16
-13 -253 -123 -256 -119 -12 14 -95 265 -89 267 4 2 61 29 127 62 66 32 123
59 126 59 3 1 27 -58 53 -131z m-1957 -43 c-5 -5 -66 -35 -70 -35 -3 0 12 108
24 170 0 3 11 -26 25 -64 13 -38 23 -70 21 -71z m298 98 c14 -35 105 -295 105
-300 0 -9 -265 -131 -271 -125 -8 8 -101 289 -103 309 -1 12 223 130 250 132
7 1 15 -7 19 -16z m2208 -123 l45 -115 -102 -52 c-55 -29 -104 -52 -108 -52
-3 -1 -11 11 -16 27 -5 15 -26 71 -46 125 l-36 98 103 49 c56 27 105 46 109
42 4 -4 27 -59 51 -122z m-1439 -37 c26 -70 43 -129 38 -131 -4 -1 -73 -34
-152 -72 -80 -38 -148 -66 -151 -62 -8 8 -89 232 -89 245 0 9 276 145 296 146
7 1 33 -56 58 -126z m610 -22 c25 -69 46 -128 46 -133 0 -14 -250 -132 -259
-122 -12 13 -94 254 -89 259 6 6 252 123 255 121 1 -1 22 -57 47 -125z m1276
-52 c9 -99 9 -124 -2 -130 -24 -16 -16 -30 -89 163 l-28 78 47 24 c58 30 57
33 72 -135z m-674 6 c23 -66 42 -120 41 -121 -1 -1 -48 -25 -103 -52 l-102
-51 -11 27 c-27 69 -81 225 -78 228 10 10 194 93 201 91 4 -2 28 -56 52 -122z
m-2213 -49 l55 -164 -100 -46 c-55 -26 -103 -44 -107 -41 -8 9 -5 252 4 323 6
47 10 54 43 72 20 10 40 19 43 20 3 0 31 -74 62 -164z m2795 42 c21 -57 42
-112 46 -124 6 -18 -7 -27 -110 -78 -64 -31 -121 -55 -127 -53 -10 3 -102 236
-95 242 6 6 232 115 239 115 4 0 25 -46 47 -102z m-2117 -77 l46 -130 -129
-60 c-71 -34 -133 -61 -138 -61 -4 0 -18 28 -30 63 -13 34 -34 90 -46 125
l-24 63 133 65 c72 35 134 64 137 64 3 0 26 -58 51 -129z m622 102 c3 -10 23
-69 46 -130 l40 -113 -40 -21 c-23 -11 -74 -35 -114 -54 l-73 -33 -43 122
c-23 66 -44 127 -47 134 -4 11 187 112 214 112 7 0 14 -8 17 -17z m690 -122
l45 -123 -131 -63 c-72 -35 -132 -63 -134 -62 -1 1 -22 58 -46 126 l-45 123
131 64 c72 35 132 62 133 61 1 -1 23 -58 47 -126z m527 9 c12 -30 33 -83 46
-118 l23 -62 -108 -55 c-96 -47 -110 -52 -116 -37 -34 88 -86 234 -83 237 16
15 205 102 210 97 4 -4 16 -32 28 -62z m-1417 -111 c26 -73 46 -133 45 -135
-15 -14 -303 -142 -308 -137 -12 14 -92 243 -88 254 3 9 283 148 298 149 4 0
27 -59 53 -131z m-708 -10 c25 -72 45 -132 43 -134 -2 -1 -65 -32 -140 -68
l-137 -65 -41 124 c-23 68 -40 129 -38 135 2 6 62 39 133 74 72 35 131 64 131
64 1 1 23 -58 49 -130z m1320 -19 c25 -67 44 -124 42 -126 -10 -10 -253 -121
-258 -118 -12 7 -92 248 -83 251 5 2 63 29 129 62 66 32 121 57 123 56 1 -1
22 -57 47 -125z m596 -26 l47 -125 -99 -49 c-54 -28 -102 -50 -107 -50 -7 0
-92 224 -92 243 0 6 186 105 200 106 3 1 26 -56 51 -125z m589 74 l-1 -43 -15
34 c-12 28 -12 36 -2 43 7 4 14 8 16 8 1 0 2 -19 2 -42z m-6 -150 c-2 -95 -22
-278 -33 -296 -3 -6 -27 -20 -53 -31 l-46 -19 -72 186 c-40 103 -74 193 -77
199 -3 9 39 34 118 73 l124 60 20 -42 c16 -34 20 -62 19 -130z m-2785 -27 c22
-69 40 -125 38 -125 -1 -1 -48 -23 -104 -51 -56 -27 -104 -47 -106 -44 -11 12
-77 264 -70 266 4 2 49 23 98 47 50 24 93 41 96 37 4 -3 25 -62 48 -130z m669
9 c22 -63 42 -121 44 -127 3 -11 -261 -149 -267 -141 -1 2 -20 55 -43 118 -22
63 -43 123 -47 132 -6 14 16 28 127 81 73 35 136 61 139 58 4 -3 25 -58 47
-121z m661 -7 c22 -65 41 -122 41 -126 0 -13 -213 -109 -221 -100 -13 13 -90
236 -83 242 9 9 198 99 210 100 6 1 30 -52 53 -116z m645 4 c21 -61 41 -118
44 -124 2 -8 -42 -35 -119 -73 -68 -33 -128 -60 -134 -60 -9 0 -86 204 -89
236 -1 12 222 131 249 133 6 1 28 -50 49 -112z m516 60 c0 -1 34 -90 75 -197
41 -106 74 -195 72 -196 -6 -6 -221 -104 -223 -101 -5 4 -144 381 -144 389 0
9 189 107 208 107 6 1 12 0 12 -2z m-2681 -301 c-2 -2 -13 -6 -25 -10 -20 -6
-22 -1 -33 94 -19 167 -13 176 26 42 20 -67 34 -124 32 -126z m1280 127 c22
-65 41 -122 41 -128 0 -9 -301 -159 -305 -153 -6 10 -85 237 -85 245 0 8 280
149 301 152 4 1 25 -52 48 -116z m-704 -23 c26 -72 45 -133 43 -135 -15 -15
-274 -132 -280 -127 -7 8 -88 239 -88 254 0 8 253 136 271 138 4 0 28 -59 54
-130z m1313 2 c23 -65 42 -122 42 -128 0 -6 -58 -38 -128 -71 l-129 -60 -46
126 -45 126 126 62 c70 34 129 62 132 62 3 1 25 -52 48 -117z m627 -103 c39
-105 71 -194 73 -198 2 -5 -3 -11 -10 -14 -7 -3 -56 -25 -109 -50 l-95 -45
-36 102 c-20 55 -52 145 -72 199 l-35 97 97 50 c53 27 102 49 107 49 6 1 42
-85 80 -190z m-2237 -37 c23 -70 42 -131 42 -135 0 -13 -213 -108 -221 -100
-4 4 -22 60 -39 123 -18 63 -35 121 -37 127 -3 8 34 32 98 63 56 27 105 50
108 50 4 0 26 -58 49 -128z m1341 -6 c23 -65 40 -120 39 -122 -7 -6 -221 -104
-223 -102 -7 8 -85 232 -85 242 0 14 212 117 221 107 3 -3 25 -60 48 -125z
m-660 3 c24 -66 41 -122 39 -124 -14 -14 -261 -126 -266 -120 -7 6 -92 238
-89 241 9 8 252 124 261 124 6 0 31 -54 55 -121z m1333 -78 c38 -106 67 -195
66 -196 -8 -7 -248 -115 -256 -115 -5 0 -40 88 -79 195 l-70 195 121 59 c67
33 127 59 135 58 8 -1 41 -78 83 -196z m-2278 82 c44 -152 66 -234 66 -245 0
-17 -47 -41 -54 -29 -7 10 -52 192 -61 243 -6 30 -4 37 12 41 30 8 31 8 37
-10z m1360 -106 c21 -61 41 -117 43 -123 5 -12 -283 -157 -300 -151 -9 3 -99
238 -93 244 7 7 292 142 301 143 6 0 28 -51 49 -113z m-724 31 c13 -35 34 -91
46 -126 l24 -63 -138 -65 c-75 -36 -141 -66 -145 -67 -11 -2 -98 247 -89 251
4 2 66 32 137 67 72 35 133 64 136 64 4 1 17 -27 29 -61z m1362 -129 c37 -101
67 -189 67 -194 1 -15 -249 -129 -259 -119 -7 8 -140 369 -140 380 0 8 245
122 255 120 6 -2 40 -85 77 -187z m911 99 c-9 -43 -19 -78 -23 -78 -6 0 -50
102 -50 116 0 5 83 43 87 40 0 0 -6 -36 -14 -78z m-57 -44 l27 -75 -17 -57
c-24 -77 -109 -292 -116 -292 -3 0 -36 84 -74 188 -38 103 -70 192 -73 198 -3
8 194 111 218 113 4 1 19 -33 35 -75z m-1836 -56 c13 -35 34 -91 46 -126 l24
-64 -136 -65 c-74 -36 -137 -63 -138 -61 -13 16 -88 252 -81 255 6 2 64 30
130 62 66 33 123 60 126 60 4 1 17 -27 29 -61z m707 -134 l71 -196 -112 -53
c-61 -28 -112 -51 -114 -50 -6 5 -142 388 -139 391 5 5 211 103 218 103 3 1
38 -87 76 -195z m-1367 60 c23 -69 40 -128 37 -131 -4 -3 -56 -29 -117 -59
-75 -36 -112 -49 -115 -41 -3 7 -20 65 -39 130 l-34 119 111 53 c62 29 113 54
114 54 1 1 20 -56 43 -125z m2303 -109 l77 -206 -26 -52 c-32 -64 -127 -217
-134 -217 -5 0 -46 111 -58 158 -2 7 39 32 104 62 59 28 105 53 102 55 -3 3
-53 -17 -111 -44 l-105 -49 -67 185 c-37 102 -69 192 -72 199 -3 8 30 30 99
63 56 27 106 50 109 50 3 1 40 -91 82 -204z m-1175 -64 l70 -193 -152 -73
c-83 -40 -154 -70 -158 -66 -6 6 -138 365 -138 377 0 5 303 154 307 151 1 -2
33 -89 71 -196z m-1371 55 c19 -66 32 -125 29 -132 -8 -20 -33 -17 -39 4 -3 9
-24 64 -46 121 -23 58 -40 105 -38 106 16 12 44 24 51 22 5 -2 24 -56 43 -121z
m642 -7 c24 -67 39 -124 35 -129 -5 -5 -71 -38 -147 -74 -92 -43 -139 -61
-142 -53 -3 7 -22 64 -44 127 l-39 115 137 67 c75 37 141 67 146 67 6 1 30
-53 54 -120z m1664 -71 c36 -101 67 -189 69 -197 2 -9 -40 -34 -125 -73 -71
-33 -131 -58 -133 -55 -7 6 -132 350 -136 373 -2 11 33 32 122 74 69 32 128
59 131 59 4 1 36 -81 72 -181z m-1259 -129 c37 -105 66 -192 64 -194 -12 -12
-262 -124 -267 -120 -11 12 -140 380 -133 383 4 1 61 29 127 61 66 33 125 60
130 60 6 1 42 -85 79 -190z m-710 53 c20 -57 36 -110 36 -117 0 -17 -231 -128
-242 -117 -8 8 -79 244 -74 249 1 1 54 27 117 57 79 38 116 51 121 43 3 -7 22
-59 42 -115z m1696 -67 c37 -105 65 -193 61 -197 -8 -8 -254 -119 -256 -116
-6 8 -135 375 -135 383 1 11 239 125 254 121 4 -1 39 -87 76 -191z m-1970 0
c11 -38 18 -71 15 -73 -2 -2 -19 26 -37 62 -27 56 -30 68 -18 76 19 12 18 14
40 -65z m700 -121 l68 -189 -131 -63 c-73 -35 -142 -68 -154 -72 -21 -9 -25 0
-86 184 l-65 194 147 69 c80 39 147 69 149 68 2 -2 34 -87 72 -191z m989 3
c36 -100 66 -187 68 -193 3 -9 -216 -120 -222 -112 -5 6 -135 374 -135 381 0
8 196 105 215 106 6 1 39 -81 74 -182z m-240 -110 c36 -100 66 -187 68 -193 3
-9 -253 -135 -296 -146 -8 -2 -36 62 -81 187 l-69 190 147 72 c81 39 152 72
157 72 6 1 39 -81 74 -182z m-1064 -37 c32 -96 60 -180 62 -186 2 -5 -20 -21
-48 -34 l-52 -25 -69 74 c-37 40 -98 112 -133 160 l-65 86 117 57 c65 32 120
54 124 50 4 -4 32 -86 64 -182z m1972 90 l32 -90 -59 -72 c-62 -78 -157 -175
-163 -167 -14 17 -109 303 -101 306 5 2 61 28 124 57 63 30 120 55 125 55 6 1
25 -39 42 -89z m-1292 -37 c38 -97 126 -355 123 -363 -2 -7 -251 -130 -263
-130 -5 0 -137 381 -134 385 6 5 252 123 260 124 4 1 10 -7 14 -16z m1037
-155 l56 -153 -42 -37 c-62 -57 -200 -150 -204 -138 -2 6 -33 90 -68 187 -35
97 -63 178 -61 179 7 7 244 113 253 114 6 0 36 -69 66 -152z m-1258 -157 c36
-102 65 -186 63 -187 -2 -2 -32 -17 -68 -33 -35 -17 -57 -30 -49 -30 8 -1 39
11 69 24 55 26 70 23 71 -12 0 -7 4 -13 10 -13 6 0 6 9 -1 26 -5 15 -8 28 -6
30 14 14 263 122 269 116 3 -4 29 -69 56 -144 l49 -138 -76 0 c-207 0 -480 84
-655 202 -46 31 -51 39 -78 118 -15 46 -27 88 -26 92 4 12 292 146 300 139 4
-3 36 -89 72 -190z m991 0 c36 -100 65 -184 65 -187 0 -6 -173 -88 -205 -98
-18 -5 -26 12 -84 172 -35 97 -65 182 -68 188 -3 9 217 118 224 110 2 -2 32
-85 68 -185z m-247 -88 c32 -93 62 -178 66 -189 6 -20 0 -23 -71 -43 -75 -20
-195 -40 -239 -41 -19 0 -29 18 -69 128 -26 70 -47 138 -48 150 -2 21 14 32
143 92 80 37 148 68 151 69 4 1 34 -74 67 -166z m-1106 57 c15 -45 21 -77 15
-73 -7 3 -40 29 -75 57 l-63 50 43 23 c24 12 45 22 48 23 3 0 18 -36 32 -80z
m1690 -478 l-2 -368 -35 -13 -35 -12 -142 144 c-79 79 -196 185 -261 236 -67
51 -113 93 -105 95 7 3 51 17 98 31 120 38 290 123 390 193 47 34 87 61 90 61
3 1 4 -165 2 -367z"/>
</g>
</svg>
