<?xml version="1.0" standalone="no"?>
<!DOCTYPE svg PUBLIC "-//W3C//DTD SVG 20010904//EN"
 "http://www.w3.org/TR/2001/REC-SVG-20010904/DTD/svg10.dtd">
<svg version="1.0" xmlns="http://www.w3.org/2000/svg"
 width="1280.000000pt" height="1280.000000pt" viewBox="0 0 1280.000000 1280.000000"
 preserveAspectRatio="xMidYMid meet">
<metadata>
Created by potrace 1.15, written by Peter Selinger 2001-2017
</metadata>
<g transform="translate(0.000000,1280.000000) scale(0.100000,-0.100000)"
fill="#000000" stroke="none">
<path d="M7420 10969 c-536 -95 -854 -667 -651 -1174 98 -245 308 -432 568
-507 66 -20 101 -23 233 -23 165 1 226 13 358 71 223 99 405 317 474 569 31
116 31 307 0 425 -82 309 -310 536 -627 626 -63 18 -282 26 -355 13z"/>
<path d="M2134 9256 c-218 -42 -389 -129 -530 -270 -203 -203 -291 -473 -256
-781 57 -491 468 -961 982 -1123 258 -82 464 -88 735 -22 171 42 244 52 380
53 139 1 212 -14 294 -57 32 -17 296 -199 585 -405 419 -297 526 -377 520
-390 -26 -59 -54 -152 -54 -183 -1 -110 62 -251 143 -323 27 -25 79 -60 116
-77 62 -31 72 -33 176 -33 93 0 150 8 365 52 140 29 419 84 620 123 201 39
424 83 495 96 195 38 301 85 364 161 18 21 128 228 244 460 117 233 214 423
217 423 5 0 273 -1258 274 -1289 1 -10 -250 -284 -615 -672 -339 -360 -641
-681 -671 -715 -67 -74 -100 -129 -127 -213 -21 -64 -21 -72 -21 -1515 0
-1595 -4 -1484 62 -1609 98 -184 322 -296 531 -266 168 23 315 127 389 273 67
132 62 33 68 1338 l5 1187 634 666 c348 367 637 663 641 658 3 -4 33 -159 64
-343 224 -1302 214 -1250 266 -1349 34 -63 1724 -2072 1811 -2153 176 -161
439 -186 635 -60 246 159 318 484 162 727 -14 22 -346 417 -737 879 -391 461
-711 846 -711 856 0 10 -31 199 -69 421 -38 222 -102 593 -141 824 -39 231
-105 614 -146 852 -40 238 -105 573 -143 745 -38 172 -118 534 -176 803 -59
270 -113 517 -120 550 -8 32 -13 60 -11 62 1 2 97 -51 213 -118 l210 -121 374
-714 c206 -393 390 -736 409 -762 45 -59 119 -116 190 -144 44 -18 75 -22 160
-23 100 0 108 2 181 36 136 65 223 181 249 332 14 81 3 162 -34 242 -37 81
-794 1524 -828 1577 -36 57 -89 106 -176 162 -109 70 -1599 916 -1677 952
-130 60 -221 78 -390 79 -177 0 -247 -16 -411 -94 -128 -61 -207 -114 -301
-204 -157 -150 -165 -164 -654 -1146 -247 -498 -451 -906 -453 -908 -4 -4
-286 -60 -1006 -199 -236 -46 -288 -54 -305 -43 -58 35 -1137 803 -1162 827
-131 123 -205 342 -253 737 -44 366 -267 711 -604 937 -156 104 -334 181 -509
219 -120 26 -372 34 -473 15z m385 -341 c289 -61 561 -245 722 -489 162 -246
196 -534 89 -745 -62 -124 -182 -230 -317 -281 -392 -149 -923 62 -1189 471
-91 140 -133 269 -141 429 -9 196 37 323 166 450 85 84 165 129 284 160 91 24
285 27 386 5z"/>
<path d="M1635 5716 c-73 -18 -131 -51 -185 -106 -194 -193 -139 -511 108
-632 62 -31 73 -33 172 -33 99 0 110 2 171 32 116 58 201 174 218 298 38 278
-215 508 -484 441z"/>
</g>
</svg>
