<?xml version="1.0" standalone="no"?>
<!DOCTYPE svg PUBLIC "-//W3C//DTD SVG 20010904//EN"
 "http://www.w3.org/TR/2001/REC-SVG-20010904/DTD/svg10.dtd">
<svg version="1.0" xmlns="http://www.w3.org/2000/svg"
 width="640.000000pt" height="1280.000000pt" viewBox="0 0 640.000000 1280.000000"
 preserveAspectRatio="xMidYMid meet">
<metadata>
Created by potrace 1.15, written by Peter Selinger 2001-2017
</metadata>
<g transform="translate(0.000000,1280.000000) scale(0.100000,-0.100000)"
fill="#000000" stroke="none">
<path d="M3045 12793 c-201 -23 -335 -54 -485 -110 -821 -307 -1442 -1179
-1664 -2338 -91 -475 -105 -1049 -40 -1560 48 -377 148 -771 281 -1110 104
-265 275 -586 413 -776 39 -54 47 -70 35 -76 -11 -6 7 -40 81 -153 384 -585
699 -1120 829 -1410 120 -266 235 -658 331 -1124 31 -154 31 -156 -6 -156
l-30 0 0 -1738 0 -1737 -90 -90 -90 -90 0 -162 0 -163 575 0 575 0 0 149 0
149 -70 84 -70 83 0 1758 0 1757 -38 0 c-21 0 -41 2 -44 5 -6 7 -3 25 64 330
162 745 312 1079 892 2000 65 105 164 257 218 338 71 105 97 154 93 167 -4 13
6 36 33 72 298 405 546 1017 656 1618 62 339 80 554 80 930 0 318 -7 440 -45
705 -115 815 -431 1518 -899 1999 -373 383 -775 592 -1245 646 -85 9 -273 11
-340 3z m408 -343 l57 -13 0 -293 0 -294 -280 0 -280 0 0 300 0 300 23 5 c53
11 91 13 252 10 94 -1 196 -8 228 -15z m-633 -315 l0 -285 -280 0 -280 0 0
154 0 154 81 52 c110 71 257 143 364 179 50 17 96 31 103 31 9 0 12 -64 12
-285z m957 220 c111 -45 231 -111 336 -186 l87 -62 0 -128 0 -129 -280 0 -280
0 0 276 0 276 28 -7 c15 -3 64 -21 109 -40z m-1654 -407 l-1 -93 -99 -3 -98
-3 95 96 c52 52 97 95 100 95 3 0 4 -42 3 -92z m2319 -70 l19 -28 -60 0 -61 0
0 67 0 67 41 -39 c22 -22 50 -52 61 -67z m-2319 -446 l2 -282 -280 0 -280 0 2
90 c1 81 5 96 34 148 45 79 155 249 191 295 l30 38 149 -3 150 -3 2 -283z
m697 3 l0 -285 -280 0 -280 0 0 285 0 285 280 0 280 0 0 -285z m690 0 l0 -285
-280 0 -280 0 0 285 0 285 280 0 280 0 0 -285z m690 0 l0 -285 -280 0 -280 0
0 278 c0 153 3 282 7 285 3 4 129 7 280 7 l273 0 0 -285z m387 268 c95 -121
313 -494 313 -536 0 -15 -26 -17 -280 -17 l-280 0 0 285 0 285 116 0 c99 0
119 -3 131 -17z m-3157 -973 l0 -280 -83 0 c-46 0 -86 3 -89 6 -9 8 54 239
106 389 52 153 57 165 62 165 2 0 4 -126 4 -280z m693 3 l-2 -278 -276 0 -276
0 -2 278 -2 277 280 0 280 0 -2 -277z m697 106 l0 -171 -34 -47 c-18 -25 -48
-74 -65 -108 l-31 -63 -215 0 -215 0 0 280 0 280 280 0 280 0 0 -171z m690
127 l0 -44 -83 5 c-136 9 -291 -30 -411 -102 -32 -19 -60 -35 -62 -35 -2 0 -4
50 -4 110 l0 110 280 0 280 0 0 -44z m690 -236 l0 -280 -50 0 -50 0 -26 53
c-82 161 -210 286 -368 357 l-66 30 0 60 0 60 280 0 280 0 0 -280z m698 3 l-3
-278 -277 -3 -278 -2 0 280 0 280 280 0 280 0 -2 -277z m165 15 c24 -76 77
-279 77 -292 0 -3 -25 -6 -55 -6 l-55 0 0 190 c0 105 2 190 4 190 2 0 15 -37
29 -82z m-3633 -708 l0 -280 -141 0 -141 0 7 73 c10 120 35 307 52 400 l16 87
103 0 104 0 0 -280z m693 3 l-3 -278 -275 0 -276 0 -2 278 -2 277 280 0 280 0
-2 -277z m520 174 c-8 -150 27 -301 98 -421 l21 -36 -251 0 -251 0 0 280 0
280 194 0 194 0 -5 -103z m1557 -177 l0 -280 -86 0 c-47 0 -84 3 -82 8 101
201 113 245 113 420 l0 132 27 0 28 0 0 -280z m700 0 l0 -280 -280 0 -280 0 0
280 0 280 280 0 280 0 0 -280z m274 264 c10 -26 55 -352 62 -451 l7 -93 -107
0 -106 0 0 280 0 280 69 0 c54 0 70 -4 75 -16z m-3744 -954 l0 -280 -138 0
-139 0 -6 122 c-9 158 -9 423 0 431 3 4 69 7 145 7 l138 0 0 -280z m691 0 l0
-275 -276 0 -276 0 0 273 c1 149 1 274 1 277 0 3 124 4 275 3 l276 -3 0 -275z
m699 0 l0 -280 -280 0 -280 0 0 280 0 280 280 0 280 0 0 -280z m1380 0 l0
-280 -280 0 -280 0 0 193 0 194 93 46 c50 25 112 64 137 86 l45 40 143 1 142
0 0 -280z m700 0 l0 -280 -280 0 -280 0 0 280 0 280 280 0 280 0 0 -280z m350
68 c0 -117 -3 -243 -7 -280 l-6 -68 -103 0 -104 0 0 280 0 280 110 0 110 0 0
-212z m-2238 106 c108 -68 272 -109 409 -102 l89 4 0 -178 0 -178 -280 0 -280
0 0 246 c0 193 3 244 13 238 6 -4 28 -18 49 -30z m-1582 -864 l0 -281 -87 3
-88 3 -22 115 c-23 119 -63 385 -63 420 0 19 6 20 130 20 l130 0 0 -280z m693
-3 l2 -277 -280 0 -280 0 2 277 c2 153 3 279 3 281 0 1 124 1 275 0 l276 -3 2
-278z m697 3 l0 -280 -280 0 -280 0 0 280 0 280 280 0 280 0 0 -280z m690 0
l0 -280 -280 0 -280 0 0 280 0 280 280 0 280 0 0 -280z m690 0 l0 -280 -280 0
-280 0 0 273 c0 151 3 277 7 280 3 4 129 7 280 7 l273 0 0 -280z m698 -2 l2
-278 -280 0 -280 0 0 280 0 280 278 -2 277 -3 3 -277z m324 242 c-6 -71 -34
-249 -59 -382 l-25 -138 -54 0 -54 0 0 280 0 281 98 -3 97 -3 -3 -35z m-3792
-872 c0 -116 -2 -209 -4 -207 -6 7 -95 277 -115 349 l-20 70 70 0 69 0 0 -212z
m693 -65 l-2 -278 -276 0 -276 0 -2 278 -2 277 280 0 280 0 -2 -277z m695 0
l-3 -278 -277 -3 -278 -2 0 280 0 280 280 0 280 0 -2 -277z m692 -3 l0 -280
-277 2 -278 3 -3 278 -2 277 280 0 280 0 0 -280z m690 0 l0 -280 -277 2 -278
3 -3 278 -2 277 280 0 280 0 0 -280z m698 3 l-3 -278 -277 -3 -278 -2 0 280 0
280 280 0 280 0 -2 -277z m198 260 c-31 -113 -59 -209 -62 -212 -2 -2 -4 48
-4 112 l0 117 36 0 c29 0 34 -3 30 -17z m-2971 -948 l0 -276 -129 3 -130 3
-69 100 c-94 137 -219 360 -227 407 l-7 38 281 0 281 0 0 -275z m695 0 l0
-275 -280 0 -280 0 0 275 0 275 280 0 280 0 0 -275z m690 0 l0 -275 -280 0
-280 0 0 275 0 275 280 0 280 0 0 -275z m690 0 l0 -275 -280 0 -280 0 0 275 0
275 280 0 280 0 0 -275z m581 139 c-39 -75 -112 -198 -163 -275 l-92 -139 -93
0 -93 0 0 275 0 275 256 0 256 0 -71 -136z m-2658 -621 l2 -73 -67 67 c-38 37
-68 71 -68 76 0 4 30 7 66 5 l66 -3 1 -72z m697 -207 l0 -285 -72 25 c-103 35
-258 112 -358 179 -139 93 -130 77 -130 232 l0 133 280 0 280 0 0 -284z m688
-8 l-3 -293 -60 -13 c-88 -20 -337 -27 -423 -12 l-72 12 0 299 0 299 280 0
280 0 -2 -292z m692 183 l0 -109 -62 -50 c-35 -27 -98 -72 -140 -101 -80 -53
-283 -156 -330 -167 l-28 -6 0 264 c0 146 3 268 7 271 3 4 129 7 280 7 l273 0
0 -109z m179 69 c-18 -22 -34 -40 -36 -40 -2 0 -3 18 -3 40 0 39 1 40 35 40
l36 0 -32 -40z m-1897 -746 c85 -43 274 -107 380 -128 263 -54 539 -43 798 31
72 20 246 89 288 114 18 10 35 19 37 19 3 0 -16 -35 -41 -77 -172 -288 -336
-607 -409 -793 -109 -278 -213 -651 -289 -1040 -20 -102 -39 -196 -42 -209 -9
-40 -21 -11 -39 94 -60 345 -175 780 -287 1087 -75 206 -264 577 -458 901 -12
20 -19 37 -16 37 4 0 38 -16 78 -36z"/>
</g>
</svg>
