<?xml version="1.0" standalone="no"?>
<!DOCTYPE svg PUBLIC "-//W3C//DTD SVG 20010904//EN"
 "http://www.w3.org/TR/2001/REC-SVG-20010904/DTD/svg10.dtd">
<svg version="1.0" xmlns="http://www.w3.org/2000/svg"
 width="853.000000pt" height="1280.000000pt" viewBox="0 0 853.000000 1280.000000"
 preserveAspectRatio="xMidYMid meet">
<metadata>
Created by potrace 1.15, written by Peter Selinger 2001-2017
</metadata>
<g transform="translate(0.000000,1280.000000) scale(0.100000,-0.100000)"
fill="#000000" stroke="none">
<path d="M146 12773 c26 -142 32 -178 31 -179 -2 -2 -135 -13 -159 -14 -10 0
-18 -7 -18 -16 0 -14 13 -16 92 -13 l92 4 27 -150 c15 -82 28 -155 28 -162 1
-12 -92 -25 -231 -33 -5 0 -8 -7 -8 -16 0 -14 12 -15 98 -9 53 4 107 8 120 10
13 2 25 -2 28 -8 10 -29 50 -268 45 -271 -5 -3 -212 -20 -251 -21 -10 0 -18
18 -26 60 l-12 60 -1 -112 c-1 -62 6 -146 14 -190 19 -100 19 -133 0 -133 -8
0 -15 -8 -15 -18 0 -13 7 -18 22 -18 19 1 23 -8 37 -96 18 -106 17 -108 -35
-108 -14 0 -24 -6 -24 -14 0 -10 14 -16 42 -18 l42 -3 18 -105 c9 -58 20 -119
23 -137 l6 -31 -66 -7 c-55 -6 -65 -10 -65 -26 0 -15 6 -18 27 -15 16 2 46 7
68 11 l40 6 18 -103 c24 -147 30 -134 -68 -148 -60 -9 -85 -16 -85 -26 0 -16
10 -17 105 -4 38 5 71 7 73 6 4 -5 42 -229 39 -232 -2 -2 -36 -8 -77 -14 -134
-19 -140 -20 -140 -35 0 -8 7 -15 16 -15 14 0 122 14 185 25 26 4 27 4 44
-106 10 -60 16 -112 13 -114 -2 -2 -51 -11 -109 -20 -139 -20 -149 -23 -149
-41 0 -14 8 -15 48 -9 166 26 217 33 221 29 5 -5 44 -275 39 -279 -1 -1 -65
-14 -140 -27 l-138 -24 -6 32 c-3 19 -10 57 -14 86 -6 41 -8 23 -9 -82 0 -78
6 -173 14 -225 13 -80 13 -91 0 -101 -21 -15 -19 -34 4 -34 18 0 20 -8 55
-244 0 -5 -16 -14 -37 -19 -26 -6 -37 -14 -37 -27 0 -16 4 -17 36 -8 20 5 38
7 41 4 6 -5 52 -286 53 -317 0 -13 -16 -20 -65 -29 -53 -10 -65 -16 -65 -31 0
-23 -2 -23 72 -3 33 8 62 14 63 12 3 -3 47 -303 59 -399 l5 -46 -99 -18 c-84
-15 -100 -21 -100 -37 0 -10 1 -18 3 -18 2 0 45 9 96 20 51 11 96 18 100 15 5
-2 14 -55 20 -117 7 -62 14 -129 16 -148 2 -19 7 -64 10 -100 3 -36 8 -82 11
-102 3 -21 3 -38 1 -38 -6 0 -192 -38 -224 -45 -19 -4 -22 0 -26 32 -3 21 -3
-54 -2 -167 2 -113 10 -248 18 -300 15 -99 14 -115 -9 -106 -12 5 -14 -43 -14
-304 l0 -309 103 -123 c298 -357 628 -825 896 -1270 l112 -186 -19 -39 c-16
-30 -38 -48 -105 -85 -90 -50 -133 -92 -143 -136 -3 -15 -7 -35 -9 -46 -6 -28
33 -202 58 -261 11 -27 31 -66 42 -85 43 -70 53 -387 16 -529 -27 -104 -27
-183 -1 -226 43 -70 114 -360 165 -680 28 -177 48 -235 106 -310 25 -34 40
-65 44 -95 4 -25 15 -88 25 -140 25 -128 29 -169 31 -280 2 -100 26 -224 114
-590 57 -234 83 -383 135 -745 48 -345 79 -517 126 -717 l36 -148 3399 0 3399
0 0 2591 0 2591 -34 47 c-49 66 -173 183 -229 215 -28 17 -49 37 -51 49 -3 12
-11 51 -19 86 -16 71 -16 71 53 126 31 24 105 131 115 165 11 37 56 133 70
150 7 8 27 78 44 155 17 76 36 142 42 146 14 8 3 320 -12 344 -4 6 -10 39 -14
75 -4 36 -18 119 -32 185 -36 181 -43 219 -38 223 9 9 80 -187 95 -262 8 -41
8 -40 9 17 1 63 -32 190 -56 219 -8 9 -12 21 -9 27 4 6 -1 22 -10 36 -9 14
-18 44 -20 65 -3 53 -13 80 -26 77 -7 -1 -15 14 -18 34 -3 19 -16 60 -27 90
-11 30 -26 74 -32 99 -7 25 -17 59 -23 75 -6 17 -11 46 -13 65 -5 66 -61 237
-92 285 -7 11 -13 30 -13 42 0 13 -4 23 -9 23 -18 0 -20 48 -6 114 7 38 11 74
9 81 -3 7 0 30 6 52 31 99 20 272 -32 479 -11 44 -19 89 -17 100 1 10 -1 27
-6 37 -4 9 -5 24 -1 32 3 8 -4 21 -16 29 -12 8 -18 21 -15 29 3 8 -10 47 -29
86 -19 39 -34 81 -34 95 0 26 -47 164 -62 181 -4 5 -8 15 -8 22 0 8 -9 33 -20
55 -11 23 -20 51 -20 62 0 22 -43 110 -66 137 -8 9 -11 19 -7 22 3 4 -3 7 -14
7 -26 0 -45 23 -37 44 4 10 1 16 -9 16 -23 0 -29 27 -7 33 12 3 32 -7 54 -28
42 -39 45 -32 11 29 -14 25 -25 51 -25 59 0 8 -9 22 -20 32 -12 10 -31 40 -42
66 -12 26 -26 45 -30 43 -4 -3 -5 2 -2 11 5 11 2 14 -12 9 -18 -5 -18 -5 -1 6
24 15 50 -5 173 -132 78 -82 108 -122 141 -189 23 -46 47 -104 53 -129 6 -25
15 -54 20 -65 5 -11 14 -58 21 -105 15 -100 13 -89 27 -120 10 -20 11 1 7 105
-7 216 -18 270 -59 304 -9 8 -16 24 -16 37 0 13 -4 24 -8 24 -4 0 -12 15 -18
33 -5 17 -15 31 -21 30 -7 -2 -10 3 -7 11 3 7 -21 42 -53 78 -78 88 -92 106
-104 132 -6 13 -23 30 -37 38 -15 9 -56 44 -92 77 -35 33 -70 63 -77 65 -7 3
-13 12 -13 20 0 8 -3 22 -6 30 -5 12 -2 15 12 10 18 -6 18 -6 1 8 -10 7 -17
18 -16 23 1 6 -1 18 -6 28 -5 12 -2 24 10 37 11 12 14 26 10 39 -5 17 -3 20
11 14 14 -5 16 -3 10 13 -15 35 -11 49 12 52 12 2 22 7 22 12 0 5 -7 7 -15 4
-8 -4 -15 -2 -15 4 0 5 7 12 15 16 8 3 13 11 10 18 -2 7 -6 36 -9 63 -10 84
-26 124 -97 226 -24 34 -35 74 -18 64 7 -5 5 2 -4 16 -9 13 -17 28 -17 34 0 5
4 3 10 -5 5 -8 12 -11 16 -7 4 3 1 13 -5 21 -9 10 -9 16 -1 21 7 4 10 16 7 26
-3 11 -1 17 4 13 13 -8 11 10 -3 25 -11 10 -10 11 4 6 15 -6 16 -1 13 40 -3
31 -1 44 6 39 12 -7 -8 31 -30 59 -10 12 -10 17 -2 17 7 0 6 9 -5 26 -11 15
-20 21 -24 14 -4 -7 -13 -3 -25 10 -18 20 -18 21 1 14 15 -5 16 -4 4 5 -9 6
-18 7 -24 1 -17 -17 -27 -11 -17 8 8 16 2 22 -47 45 -31 14 -70 30 -85 36 -21
8 -27 17 -25 33 2 17 -3 22 -27 25 -16 2 -43 17 -60 32 -16 15 -47 36 -69 45
-29 14 -35 20 -25 27 11 7 10 9 -3 9 -26 0 -22 28 5 33 16 3 11 6 -20 12 -43
8 -86 49 -61 57 7 3 -14 30 -45 62 -34 33 -62 54 -69 50 -7 -4 -8 -3 -4 4 4 7
-4 17 -21 24 -15 7 -30 16 -33 20 -9 12 -172 84 -222 98 -27 7 -48 17 -48 21
0 5 -10 9 -22 9 -12 0 -31 11 -43 25 -16 19 -32 25 -75 29 -37 3 -79 16 -128
41 -40 20 -88 39 -106 42 -24 4 -54 25 -104 74 l-71 69 -70 0 c-38 0 -73 -4
-76 -10 -12 -20 -51 -9 -94 25 -54 43 -136 84 -185 92 -21 3 -69 0 -108 -7
-52 -10 -77 -11 -99 -3 -16 6 -29 8 -29 5 0 -4 -30 -7 -68 -7 -54 0 -81 -7
-137 -32 -38 -18 -72 -28 -73 -22 -2 5 -15 0 -29 -11 -14 -11 -33 -20 -43 -20
-22 0 -147 -65 -245 -128 -11 -6 -31 -17 -45 -23 -25 -10 -109 -74 -160 -121
-16 -14 -31 -24 -34 -21 -3 3 -9 -3 -13 -13 -18 -46 -125 -128 -180 -137 -10
-1 -36 -15 -58 -30 -22 -15 -46 -27 -53 -27 -12 0 -100 -47 -112 -60 -3 -3
-14 -7 -24 -8 -31 -6 -122 -67 -160 -109 -25 -28 -32 -41 -24 -51 8 -9 7 -11
-5 -6 -12 4 -21 -4 -33 -33 -42 -96 -57 -125 -71 -130 -8 -3 -12 -12 -9 -19 3
-9 -2 -14 -13 -14 -15 0 -19 11 -25 64 -11 111 -55 366 -91 527 -60 266 -137
520 -282 927 l-15 42 -235 0 c-205 0 -234 -2 -229 -15 4 -10 -1 -15 -14 -15
-11 0 -20 7 -20 15 0 8 -9 15 -20 15 -13 0 -20 -7 -20 -20 0 -18 -7 -20 -84
-20 -46 0 -98 -3 -115 -6 -28 -6 -31 -4 -31 20 0 19 -5 26 -20 26 -15 0 -20
-7 -20 -25 0 -25 -1 -25 -92 -25 -51 0 -103 -3 -115 -6 -18 -5 -22 -1 -25 22
-4 42 -38 46 -38 6 l0 -30 -77 -6 c-43 -4 -97 -8 -120 -10 -42 -3 -42 -3 -45
33 -2 26 -8 37 -22 39 -16 3 -18 -1 -14 -36 l3 -40 -65 -6 c-36 -3 -91 -6
-122 -6 -53 0 -58 2 -58 23 0 43 -12 67 -32 67 -20 0 -20 -16 -2 -81 4 -13 -7
-17 -57 -23 -34 -3 -83 -6 -109 -6 -45 0 -48 2 -54 31 -3 17 -6 42 -6 55 0 18
-6 24 -21 24 -20 0 -21 -3 -15 -59 l7 -60 -113 -3 c-62 -2 -114 -3 -115 -2 -2
0 -6 28 -9 62 -6 53 -10 62 -27 62 -18 0 -19 -5 -12 -65 l7 -65 -50 0 c-27 0
-76 -3 -109 -6 l-61 -7 -12 72 c-10 61 -15 71 -32 71 -16 0 -19 -5 -15 -22 3
-13 9 -47 13 -75 l7 -53 -55 0 c-30 0 -82 -3 -115 -6 l-60 -7 -7 49 c-15 107
-17 114 -38 114 -17 0 -19 -5 -14 -32 3 -18 8 -56 12 -84 l6 -51 -112 -7 c-62
-3 -114 -5 -116 -3 -2 2 -9 41 -16 87 -11 74 -16 85 -34 88 -21 3 -21 3 -6
-88 8 -50 13 -92 11 -94 -2 -2 -61 -7 -130 -11 l-125 -7 -13 83 c-16 111 -19
119 -41 119 -16 0 -19 -5 -14 -27z m2754 -50 c0 -5 9 -71 20 -147 11 -76 19
-140 18 -142 -6 -5 -233 -22 -240 -17 -5 2 -8 23 -8 46 -1 23 -7 90 -14 149
l-12 107 30 4 c58 7 206 7 206 0z m109 -30 c10 -21 35 -83 55 -137 43 -113 42
-116 -39 -116 -41 0 -51 3 -52 18 -2 20 -19 154 -29 225 -7 46 -6 47 19 47 21
0 31 -9 46 -37z m-370 -100 c7 -71 14 -140 17 -155 6 -29 0 -31 -146 -43 l-76
-6 -12 98 c-6 54 -14 126 -18 160 l-6 62 58 4 c33 2 84 4 115 5 l56 2 12 -127z
m-272 27 c6 -47 15 -119 19 -161 l6 -76 -112 -8 c-61 -4 -113 -5 -114 -3 -5 7
-46 312 -42 315 5 6 173 21 206 19 23 -1 25 -6 37 -86z m-278 3 c6 -38 17
-112 24 -165 l14 -98 -42 0 c-23 0 -76 -3 -117 -6 l-75 -7 -25 159 c-14 88
-24 160 -23 162 3 3 150 18 202 21 31 1 31 1 42 -66z m-262 -98 c33 -202 42
-181 -84 -188 -59 -3 -108 -5 -110 -4 -7 8 -44 309 -38 315 8 8 122 20 174 18
l35 -1 23 -140z m-277 114 c0 -6 9 -77 21 -156 24 -167 26 -163 -62 -163 -31
0 -76 -3 -100 -6 l-44 -6 -19 133 c-10 74 -20 148 -23 166 -7 39 -1 40 130 42
65 1 97 -3 97 -10z m-270 -11 c1 -7 11 -82 24 -165 l23 -153 -31 -4 c-17 -3
-66 -7 -109 -9 -72 -4 -78 -3 -82 17 -7 30 -45 286 -45 302 0 9 20 14 63 17
141 8 157 7 157 -5z m-260 -13 c0 -13 38 -257 46 -297 5 -25 3 -27 -48 -32
-134 -14 -168 -13 -172 3 -3 9 -14 72 -26 141 -11 69 -23 137 -26 152 -5 27
-5 27 58 31 119 6 168 7 168 2z m-265 -37 c3 -13 14 -76 25 -140 10 -64 22
-128 26 -142 6 -23 4 -24 -58 -30 -120 -10 -178 -13 -178 -6 0 3 -11 74 -25
158 -14 84 -25 157 -25 162 0 8 47 13 177 18 47 2 53 0 58 -20z m-271 -25 c16
-79 47 -295 43 -299 -5 -5 -240 -23 -245 -19 -6 5 -59 326 -53 328 3 2 35 4
71 6 36 2 67 5 69 7 2 2 28 4 57 4 49 0 53 -2 58 -27z m2673 -265 c46 -153 52
-139 -70 -152 -77 -9 -68 -24 -91 149 -8 61 -12 113 -8 117 4 4 32 9 62 11 30
2 58 4 61 5 3 1 24 -58 46 -130z m-213 95 c5 -18 28 -200 30 -238 1 -18 -9
-21 -119 -32 -66 -6 -121 -11 -122 -9 -4 4 -34 268 -31 271 4 4 160 22 205 24
22 1 33 -4 37 -16z m-280 -35 c15 -96 26 -242 19 -248 -4 -4 -54 -10 -109 -13
l-101 -5 -12 92 c-6 50 -14 112 -17 137 l-5 46 103 10 c57 5 106 11 110 11 4
1 9 -13 12 -30z m-264 -5 c0 -5 7 -55 15 -113 21 -152 21 -147 -22 -154 -21
-3 -72 -7 -113 -8 l-74 -3 -18 130 c-9 71 -14 132 -11 135 4 5 107 15 186 18
20 1 37 -1 37 -5z m-265 -45 c8 -46 33 -233 31 -234 0 -1 -53 -5 -116 -9
l-116 -7 -12 99 c-7 54 -15 115 -18 135 l-6 37 78 4 c44 1 96 4 116 5 35 2 37
0 43 -30z m-270 -20 c10 -59 32 -233 30 -236 -1 -1 -51 -5 -112 -9 l-109 -6
-12 79 c-6 43 -15 105 -18 136 l-7 57 59 4 c167 10 162 10 169 -25z m-262 -25
c21 -141 30 -223 26 -228 -3 -3 -53 -8 -112 -11 l-106 -7 -5 24 c-2 13 -10 60
-16 104 -6 44 -13 94 -16 112 l-5 32 58 4 c32 2 83 4 114 5 l56 2 6 -37z
m-251 -114 c10 -73 17 -134 14 -136 -2 -2 -51 -7 -109 -10 l-105 -6 -7 54 c-4
30 -13 90 -20 134 -8 44 -13 81 -11 82 3 3 211 19 215 16 2 -1 12 -62 23 -134z
m-257 -21 l21 -136 -66 -6 c-36 -3 -85 -7 -110 -8 l-45 -3 -21 135 c-12 74
-21 136 -19 138 3 4 186 20 205 18 11 -1 20 -34 35 -138z m-269 37 c7 -44 16
-106 21 -137 l10 -57 -66 -6 c-36 -3 -89 -7 -117 -10 l-51 -5 -22 136 c-12 75
-20 138 -18 140 5 6 176 22 207 20 23 -1 25 -6 36 -81z m-286 58 c0 -5 9 -61
20 -126 11 -65 20 -125 20 -132 0 -16 -28 -22 -156 -30 l-90 -6 -23 136 c-12
75 -21 139 -19 141 3 2 49 8 104 13 139 12 144 12 144 4z m2725 -351 c-2 -2
-51 -7 -109 -9 -99 -6 -106 -5 -106 13 0 10 -7 66 -14 124 -8 58 -14 106 -13
107 1 0 43 5 92 10 l90 8 32 -125 c17 -68 30 -126 28 -128z m-265 101 l15
-121 -95 -7 c-52 -4 -109 -8 -126 -10 l-32 -4 -12 114 c-7 63 -13 118 -12 122
2 10 153 31 207 29 l40 -1 15 -122z m-289 -22 l14 -120 -85 -6 c-47 -4 -96 -7
-110 -8 -24 -2 -25 1 -37 88 -6 50 -12 104 -12 122 -1 31 0 32 47 36 26 2 74
4 108 5 l61 2 14 -119z m-276 97 c10 -26 31 -229 24 -233 -6 -4 -154 -18 -199
-20 -11 0 -18 28 -31 120 -9 66 -16 121 -15 122 2 2 47 7 102 12 54 4 103 9
107 10 4 0 10 -5 12 -11z m-244 -133 c9 -66 16 -121 15 -122 -3 -4 -179 -23
-208 -23 -24 0 -28 4 -28 28 0 15 -7 70 -14 122 -8 52 -13 96 -11 98 5 5 174
20 205 18 24 -1 25 -5 41 -121z m-286 83 c12 -54 31 -229 26 -233 -4 -2 -55
-7 -114 -11 -87 -5 -107 -4 -107 7 0 8 -7 62 -16 122 -9 60 -13 111 -10 115 4
3 39 9 79 12 132 13 136 12 142 -12z m-262 -30 c13 -77 30 -219 26 -222 -3 -4
-211 -24 -216 -22 -6 4 -35 248 -29 253 6 6 109 19 177 22 34 1 37 -1 42 -31z
m-249 -114 c10 -69 16 -127 13 -130 -5 -6 -200 -23 -205 -19 -5 5 -41 249 -38
253 3 3 141 18 186 21 26 1 26 -1 44 -125z m-270 79 c23 -116 36 -227 26 -233
-13 -8 -201 -23 -207 -16 -5 5 -43 249 -39 253 2 3 146 19 193 22 16 1 23 -6
27 -26z m-259 -15 c8 -39 36 -241 33 -243 -5 -3 -221 -25 -224 -22 -4 4 -45
259 -42 262 2 3 138 18 210 24 11 0 20 -8 23 -21z m-275 -4 c0 -3 9 -62 21
-131 12 -68 18 -127 15 -130 -9 -9 -211 -27 -228 -21 -9 4 -20 45 -31 119 -10
63 -20 121 -23 130 -4 14 13 17 113 26 65 5 121 10 126 11 4 1 7 -1 7 -4z
m-264 -159 c12 -71 21 -131 20 -133 -2 -1 -52 -7 -112 -12 -60 -6 -120 -11
-134 -13 -24 -2 -25 1 -47 132 -13 74 -22 136 -19 138 6 7 174 21 226 19 l44
-1 22 -130z m2966 -6 c9 -46 20 -100 23 -120 l6 -36 -111 -7 c-62 -4 -114 -6
-116 -3 -5 5 -34 230 -30 234 5 5 166 20 191 18 17 -2 23 -16 37 -86z m-268
38 c11 -64 28 -208 25 -211 -2 -2 -59 -6 -126 -9 l-122 -6 -6 32 c-13 83 -26
200 -22 204 3 2 45 8 94 12 162 13 150 14 157 -22z m-285 -70 c6 -45 14 -98
17 -118 5 -35 4 -36 -33 -42 -21 -4 -71 -7 -110 -7 -83 0 -75 -12 -93 134 -6
48 -9 91 -6 93 4 5 55 10 187 20 26 2 27 0 38 -80z m-264 26 c11 -69 22 -188
18 -193 -10 -11 -213 -15 -213 -4 0 6 -7 55 -15 109 -8 54 -13 101 -11 103 3
2 47 7 98 12 51 4 98 8 105 9 6 0 14 -16 18 -36z m-249 -80 c22 -143 31 -129
-98 -136 -62 -3 -114 -5 -115 -3 -3 3 -32 210 -30 212 4 3 222 20 226 17 2 -1
10 -42 17 -90z m-268 -37 c7 -54 10 -101 8 -104 -3 -3 -54 -5 -113 -6 l-107
-1 -14 94 c-7 51 -10 96 -7 100 9 8 109 19 170 17 l49 -1 14 -99z m-273 37 c4
-27 11 -72 16 -102 5 -30 8 -55 6 -57 -1 -1 -51 -3 -112 -5 l-110 -4 -12 94
c-7 52 -11 96 -9 98 4 4 138 20 183 22 31 1 32 -1 38 -46z m-256 -55 c7 -46
14 -90 15 -99 3 -13 -9 -18 -63 -23 -36 -3 -85 -6 -108 -6 l-42 0 -6 58 c-4
31 -10 73 -15 94 l-7 36 91 10 c50 5 98 10 107 11 13 1 19 -16 28 -81z m-250
-25 c18 -119 25 -109 -89 -118 -55 -3 -103 -7 -107 -8 -8 -2 -30 107 -32 159
l-1 31 103 9 c56 5 105 7 109 4 3 -3 11 -37 17 -77z m5867 46 c20 -39 12 -37
-20 6 -18 23 -21 33 -11 29 9 -4 22 -19 31 -35z m-6127 -71 c7 -46 14 -88 16
-94 3 -11 -211 -41 -221 -31 -8 8 -37 177 -31 183 2 3 42 9 88 13 150 15 134
23 148 -71z m-265 -37 c9 -49 16 -91 16 -94 0 -5 -67 -13 -179 -23 l-69 -6
-14 93 c-8 52 -14 95 -12 97 3 5 128 19 185 21 l56 1 17 -89z m-285 -27 c7
-53 11 -97 9 -99 -2 -2 -26 -7 -53 -10 -28 -3 -83 -10 -124 -16 -41 -5 -78 -6
-82 -2 -8 9 -39 186 -33 192 3 3 190 25 250 30 19 1 22 -8 33 -95z m2976 -49
c10 -64 16 -118 14 -120 -3 -2 -56 -7 -120 -11 l-115 -7 -12 99 c-19 155 -25
143 66 147 42 1 93 4 113 5 l37 2 17 -115z m-277 6 c7 -48 12 -102 12 -120 0
-30 -2 -31 -42 -31 -24 0 -80 -3 -124 -6 l-82 -7 -7 84 c-4 46 -10 101 -15
121 l-8 37 67 4 c36 2 93 4 127 5 l60 2 12 -89z m-287 -45 c10 -81 12 -119 5
-121 -6 -2 -57 -6 -113 -8 l-101 -5 -11 86 c-6 48 -14 104 -16 124 l-5 37 97
4 c54 1 105 3 113 2 12 0 19 -28 31 -119z m-277 92 c9 -32 27 -221 21 -226 -3
-4 -50 -8 -104 -10 l-98 -4 -6 33 c-23 128 -28 202 -15 210 22 14 198 11 202
-3z m-254 -6 c0 -5 7 -59 15 -122 8 -62 14 -115 12 -116 -3 -3 -221 -22 -225
-19 -2 2 -12 73 -29 207 l-6 47 69 4 c143 7 164 7 164 -1z m-276 -10 c7 -12
38 -243 33 -248 -6 -6 -211 -24 -216 -18 -7 7 -40 249 -34 254 2 3 46 8 96 11
51 3 97 6 104 7 6 1 14 -2 17 -6z m-260 -29 c3 -10 10 -58 16 -108 6 -49 13
-100 16 -112 5 -17 1 -23 -18 -27 -48 -10 -198 -17 -198 -9 0 8 -24 164 -35
230 -6 31 -5 32 37 36 24 2 73 4 110 5 56 2 68 -1 72 -15z m-260 -15 c10 -51
37 -250 34 -253 -6 -5 -208 -17 -208 -12 0 2 -9 62 -20 133 -11 71 -16 132
-12 136 4 4 45 9 92 11 47 1 91 4 97 5 7 1 15 -8 17 -20z m-250 -25 c3 -16 10
-59 16 -98 6 -38 13 -88 16 -111 l6 -40 -108 -12 c-59 -7 -108 -11 -110 -9 -5
5 -43 271 -39 275 2 3 35 7 72 9 37 3 70 7 72 9 2 2 19 4 37 4 27 0 33 -4 38
-27z m-264 3 c0 -2 6 -41 14 -87 27 -160 29 -186 13 -192 -18 -7 -207 -21
-207 -16 -1 2 -11 64 -24 137 -12 73 -20 135 -17 137 3 1 47 6 96 10 50 4 92
9 94 11 5 5 31 5 31 0z m-242 -162 c13 -75 21 -138 19 -140 -2 -2 -58 -10
-125 -17 l-121 -13 -5 26 c-16 82 -37 242 -32 247 5 5 171 29 221 32 19 1 23
-11 43 -135z m6622 116 c0 -5 -2 -10 -4 -10 -3 0 -8 5 -11 10 -3 6 -1 10 4 10
6 0 11 -4 11 -10z m-6930 -16 c0 -3 9 -64 20 -136 11 -72 19 -132 18 -133 -6
-6 -252 -35 -256 -30 -6 5 -53 268 -48 272 1 2 52 8 112 14 60 5 114 12 119
14 16 6 35 5 35 -1z m2990 -166 c6 -57 14 -111 16 -120 4 -13 -5 -18 -48 -23
-29 -3 -84 -5 -123 -3 l-70 3 -12 95 c-19 154 -27 139 80 143 50 1 104 4 118
5 27 2 27 1 39 -100z m-285 35 c3 -27 10 -77 15 -113 5 -35 7 -66 5 -69 -6 -5
-17 -6 -147 -16 -54 -4 -98 -3 -98 2 0 4 -7 58 -15 118 -8 61 -15 111 -15 112
0 1 37 4 83 6 45 1 101 4 124 5 l42 2 6 -47z m-291 5 c9 -40 28 -209 24 -213
-1 -1 -53 -6 -113 -10 l-111 -7 -14 121 -15 120 55 4 c156 10 169 9 174 -15z
m-253 -108 c9 -63 13 -118 10 -121 -3 -4 -50 -9 -103 -13 l-96 -6 -6 27 c-14
76 -27 205 -22 211 7 6 154 20 186 18 11 -1 19 -29 31 -116z m-252 13 c6 -49
14 -102 17 -120 6 -30 4 -32 -28 -37 -18 -3 -70 -7 -116 -10 -95 -5 -83 -20
-103 132 -6 51 -10 95 -7 97 6 6 134 22 189 24 l36 1 12 -87z m5269 25 c29
-35 46 -142 19 -119 -10 8 -15 24 -13 42 2 16 -1 29 -5 29 -5 0 -9 5 -9 11 0
5 6 7 13 4 6 -4 -3 5 -21 20 -17 14 -37 35 -42 45 -9 16 -7 17 13 7 12 -6 32
-23 45 -39z m-5535 -75 c9 -65 14 -119 13 -121 -3 -2 -218 -20 -223 -18 0 1
-6 44 -13 96 -6 52 -13 105 -16 116 -5 21 -1 22 98 31 57 6 108 11 114 12 7 0
17 -44 27 -116z m-263 -30 l15 -112 -52 -6 c-29 -3 -77 -8 -107 -11 -62 -6
-57 -14 -76 121 -16 118 -18 113 48 118 31 2 79 3 107 3 l50 -1 15 -112z
m-257 -15 c9 -62 14 -115 9 -119 -4 -3 -50 -9 -103 -13 l-97 -6 -17 111 c-9
61 -13 115 -8 120 7 7 41 11 164 17 l35 2 17 -112z m-263 85 c0 -5 7 -51 15
-103 21 -137 26 -126 -57 -134 -40 -4 -89 -10 -108 -12 l-35 -6 -18 117 c-10
65 -16 119 -14 121 2 2 44 8 93 13 126 12 124 12 124 4z m-255 -55 c34 -210
34 -196 11 -202 -12 -3 -62 -8 -112 -12 l-92 -7 -6 44 c-4 24 -12 74 -18 112
-6 37 -8 70 -4 74 9 9 91 20 163 22 51 1 52 1 58 -31z m-249 -108 c11 -66 17
-120 14 -120 -24 -1 -201 -21 -222 -26 -25 -5 -27 -3 -33 43 -4 26 -12 81 -20
121 -7 39 -10 72 -6 73 14 2 217 26 232 28 12 1 19 -24 35 -119z m-293 -30
c14 -84 16 -114 7 -120 -12 -7 -240 -34 -245 -28 -7 8 -42 229 -36 232 3 2 46
9 96 15 50 6 101 13 115 15 14 2 30 2 35 1 6 -1 18 -52 28 -115z m2951 66 c2
-12 8 -60 11 -107 l7 -86 -38 -6 c-22 -4 -74 -7 -116 -7 -87 0 -82 -5 -93 95
-3 33 -9 74 -12 92 l-5 32 108 3 c60 2 114 3 121 4 6 0 14 -9 17 -20z m-280
-18 c8 -35 26 -191 23 -194 -1 -1 -56 -6 -123 -10 l-120 -7 -12 90 c-18 138
-20 131 41 135 189 11 186 11 191 -14z m-276 -80 c7 -46 12 -95 12 -109 l0
-26 -107 -6 c-60 -3 -109 -4 -111 -2 -3 2 -31 186 -32 207 0 4 33 9 73 11 39
1 90 4 113 5 l41 2 11 -82z m-273 40 c8 -39 25 -181 22 -184 -2 -2 -48 -7
-103 -10 l-100 -7 -15 106 -15 106 60 4 c150 8 145 9 151 -15z m-236 -81 c6
-43 11 -89 11 -102 l0 -25 -115 0 c-63 0 -115 3 -115 8 -1 4 -7 48 -14 99
l-13 91 96 7 c53 3 103 7 111 9 23 4 27 -4 39 -87z m-271 -26 c7 -51 10 -96 7
-99 -4 -4 -55 -8 -114 -10 l-107 -4 -12 92 c-7 51 -11 94 -9 96 5 5 176 22
202 20 17 -1 21 -13 33 -95z m-278 72 c0 -5 6 -47 14 -95 l13 -88 -31 -5 c-66
-10 -186 -10 -187 0 0 5 -6 46 -12 90 l-12 80 95 11 c52 6 101 12 108 13 6 0
12 -2 12 -6z m-241 -110 c6 -48 9 -88 7 -91 -3 -2 -49 -6 -104 -9 l-99 -6 -7
54 c-4 30 -10 71 -13 91 l-5 37 53 4 c30 2 77 4 105 5 l51 2 12 -87z m-254 20
c4 -27 11 -65 15 -86 6 -27 5 -40 -3 -43 -17 -5 -201 -32 -205 -29 -5 4 -33
177 -30 181 4 3 145 20 190 23 25 1 27 -3 33 -46z m-256 -35 c23 -121 23 -126
4 -131 -33 -10 -194 -29 -199 -25 -6 6 -34 181 -30 185 6 6 120 21 168 22 l47
1 10 -52z m-260 -20 c5 -29 12 -74 16 -100 l6 -46 -53 -11 c-192 -39 -198 -40
-203 -17 -13 68 -28 187 -23 191 5 5 136 24 235 34 6 0 16 -22 22 -51z m-285
-94 c9 -59 15 -108 14 -109 -9 -7 -241 -46 -245 -41 -5 5 -43 206 -43 227 0 6
145 25 216 27 l41 2 17 -106z m2941 9 c4 -54 9 -105 11 -114 4 -15 -10 -17
-108 -21 -62 -2 -115 -3 -117 -2 -5 4 -29 208 -25 212 2 3 122 15 211 21 20 1
22 -5 28 -96z m-268 -33 c7 -57 11 -105 10 -107 -2 -1 -57 1 -124 4 l-121 6
-6 56 c-4 31 -9 75 -12 98 l-6 42 73 4 c41 2 96 3 124 3 l50 -1 12 -105z
m-294 68 c3 -13 9 -56 13 -95 l7 -73 -112 0 c-61 0 -111 1 -112 3 0 1 -6 41
-13 89 l-12 87 40 4 c23 2 73 4 112 5 67 2 72 0 77 -20z m-256 -79 c6 -46 11
-84 10 -85 -1 -1 -48 -4 -103 -7 l-102 -5 -6 52 c-4 28 -10 68 -13 88 l-5 37
93 3 c52 2 98 3 104 3 5 -1 15 -39 22 -86z m-253 39 c3 -18 8 -56 12 -84 l6
-52 -111 -7 c-62 -4 -114 -5 -116 -3 -8 8 -27 150 -21 164 4 11 29 14 115 14
l109 0 6 -32z m-540 -5 c2 -16 7 -50 11 -78 3 -27 8 -62 11 -76 5 -25 3 -26
-58 -32 -35 -3 -83 -9 -108 -13 l-46 -6 -13 101 c-7 56 -11 104 -9 107 3 2 47
8 99 13 52 4 97 9 101 10 3 0 9 -11 12 -26z m275 -48 c6 -42 11 -80 11 -85 0
-9 -104 -28 -180 -32 l-44 -3 -12 85 c-7 47 -13 91 -13 98 -1 9 28 12 113 12
l114 0 11 -75z m-520 -32 c7 -49 14 -97 16 -109 4 -19 -3 -22 -93 -37 -53 -9
-100 -13 -103 -9 -9 9 -40 215 -33 221 4 4 106 16 175 20 25 1 26 -2 38 -86z
m-250 15 c6 -29 13 -75 16 -103 4 -27 9 -57 11 -66 4 -13 -14 -19 -98 -32 -57
-10 -108 -17 -114 -17 -6 0 -16 45 -23 105 -6 58 -14 112 -17 120 -4 10 7 15
43 20 26 4 68 10 93 15 79 14 78 15 89 -42z m-246 -105 c8 -65 14 -119 12
-121 -6 -7 -205 -35 -210 -30 -6 6 -34 187 -35 224 0 19 8 23 78 31 42 6 91
11 108 12 l31 1 16 -117z m-264 0 c7 -49 14 -105 17 -125 5 -33 3 -38 -18 -42
-39 -9 -222 -36 -224 -33 -5 4 -34 188 -34 212 0 14 3 25 8 26 4 0 57 11 117
24 61 12 113 23 116 24 3 0 11 -38 18 -86z m-285 -89 c9 -64 16 -117 14 -119
-3 -2 -228 -35 -239 -35 -7 0 -44 219 -38 223 5 4 208 44 230 46 12 1 19 -23
33 -115z m2118 -24 c9 -69 17 -139 18 -156 l0 -32 -97 -4 c-54 -3 -99 -4 -99
-4 -2 1 -44 295 -44 306 0 9 82 17 160 16 l44 -1 18 -125z m257 43 c7 -49 16
-115 21 -147 5 -33 8 -61 6 -63 -2 -3 -53 -7 -113 -10 l-109 -6 -18 139 c-9
76 -20 147 -22 157 -5 15 5 17 109 17 l115 0 11 -87z m280 39 c1 -20 8 -81 15
-135 9 -70 10 -100 2 -102 -6 -2 -59 -6 -118 -9 -105 -5 -108 -5 -113 17 -5
25 -35 246 -35 262 0 6 43 9 123 7 l123 -3 3 -37z m266 -89 l10 -131 -50 -6
c-27 -3 -76 -6 -107 -6 l-58 0 -1 35 c-1 19 -2 38 -3 43 -1 4 -6 39 -10 77 -4
39 -10 80 -13 92 -5 22 -3 22 99 25 56 2 108 3 113 2 6 0 14 -59 20 -131z
m-1060 75 c4 -29 9 -60 10 -68 15 -87 27 -191 23 -196 -3 -3 -56 -8 -116 -11
l-111 -6 -5 34 c-14 81 -36 244 -36 265 0 25 -2 24 182 32 l46 2 7 -52z m-255
-126 c12 -85 20 -155 18 -157 -2 -2 -53 -7 -114 -11 l-110 -7 -13 99 c-7 55
-17 123 -22 153 -5 30 -8 55 -6 57 6 6 213 30 219 25 3 -3 16 -75 28 -159z
m-279 96 c0 -18 8 -87 18 -153 10 -66 18 -121 17 -122 -1 -1 -49 -5 -107 -9
l-105 -7 -21 149 c-12 82 -21 150 -19 151 3 3 149 20 184 22 30 1 32 -1 33
-31z m-237 -146 c10 -78 17 -145 14 -147 -3 -3 -48 -8 -100 -12 l-94 -6 -18
114 c-9 63 -20 126 -22 140 -6 26 -4 26 83 41 48 9 95 15 103 14 11 -1 19 -35
34 -144z m-240 -30 c10 -73 17 -134 14 -137 -6 -6 -212 -35 -216 -30 -6 6 -40
260 -35 265 6 7 184 38 203 36 11 -1 19 -34 34 -134z m-262 -37 c10 -71 15
-131 12 -134 -6 -7 -207 -41 -212 -37 -7 7 -35 257 -29 262 7 8 187 42 202 39
5 -1 17 -59 27 -130z m-257 -45 c9 -72 15 -133 14 -135 -2 -2 -55 -13 -118
-24 -80 -15 -117 -18 -122 -10 -7 12 -43 259 -38 264 6 5 233 41 240 38 4 -1
14 -61 24 -133z m-291 -22 c9 -62 20 -125 22 -139 6 -25 5 -26 -98 -43 -56
-10 -113 -20 -125 -23 -18 -4 -23 0 -27 29 -21 135 -36 251 -34 253 4 3 197
32 224 34 19 1 22 -9 38 -111z m2898 -48 c2 -62 1 -113 -2 -115 -3 -2 -46 -5
-95 -6 l-90 -2 -7 64 c-4 35 -10 87 -13 115 l-6 50 105 3 105 2 3 -111z m-251
88 c0 -7 2 -20 3 -28 2 -8 6 -44 10 -80 4 -36 10 -74 12 -86 5 -20 1 -21 -112
-27 -65 -4 -119 -5 -121 -3 -2 1 -8 41 -13 87 -6 46 -13 96 -16 111 -5 27 -4
27 53 31 139 8 183 7 184 -5z m-262 -122 c6 -54 10 -100 9 -101 -5 -4 -212
-24 -215 -21 -8 8 -32 221 -25 228 11 11 206 15 213 3 4 -5 12 -55 18 -109z
m-275 72 c10 -63 26 -177 26 -187 0 -5 -30 -12 -67 -15 -38 -4 -82 -8 -100
-11 -31 -3 -31 -3 -42 58 -5 34 -13 88 -16 119 l-7 57 48 4 c27 2 72 4 101 5
52 2 52 2 57 -30z m-244 11 c0 -6 7 -59 16 -116 8 -58 14 -106 12 -108 -6 -5
-223 -24 -227 -19 -2 2 -12 56 -21 119 -18 134 -27 123 95 128 39 2 82 4 98 5
15 1 27 -3 27 -9z m-260 -106 c6 -54 14 -108 17 -119 4 -20 0 -22 -59 -28 -35
-4 -86 -9 -114 -12 l-50 -6 -17 118 c-9 64 -15 120 -12 122 6 6 117 18 181 21
l42 1 12 -97z m-275 45 c11 -70 15 -95 21 -149 6 -53 5 -57 -17 -62 -42 -10
-189 -20 -189 -13 0 4 -7 57 -16 117 -9 61 -14 113 -11 115 5 6 120 20 174 23
29 1 33 -2 38 -31z m-247 -60 c6 -40 14 -96 17 -125 l7 -51 -79 -7 c-43 -4
-88 -8 -100 -10 -24 -4 -23 -8 -43 154 -6 45 -9 86 -6 89 6 5 103 17 167 21
25 1 27 -2 37 -71z m-248 45 c0 -5 7 -57 15 -118 8 -60 15 -113 15 -117 0 -8
-49 -15 -151 -24 l-75 -6 -16 119 c-8 65 -14 119 -14 120 1 2 182 29 214 32 6
0 12 -2 12 -6z m-250 -145 c7 -62 14 -115 14 -118 1 -7 -60 -18 -144 -25 l-76
-7 -13 111 c-8 62 -12 113 -10 115 6 7 151 34 185 35 l31 1 13 -112z m-261
-20 c6 -51 14 -103 16 -114 5 -23 12 -21 -200 -50 l-41 -6 -13 94 c-7 51 -14
100 -17 109 -3 12 12 18 73 28 43 8 94 17 113 21 19 4 40 8 46 9 7 1 16 -36
23 -91z m-280 -51 c19 -132 27 -121 -100 -141 -61 -10 -117 -20 -124 -22 -12
-5 -15 14 -39 201 -1 10 235 55 245 46 4 -3 12 -41 18 -84z m2853 61 c2 -18 1
-76 -2 -128 l-5 -95 -72 -3 c-40 -2 -73 -1 -73 0 0 2 -7 58 -15 123 -8 66 -15
121 -15 122 0 2 77 9 136 11 40 2 42 1 46 -30z m-217 -20 c8 -53 12 -78 20
-149 7 -68 6 -69 -132 -69 -106 0 -93 -14 -112 125 -17 125 -18 123 32 128 23
2 74 4 114 5 l71 2 7 -42z m-263 -90 c13 -93 14 -125 5 -130 -7 -4 -56 -8
-109 -8 -84 0 -97 2 -102 18 -11 37 -29 212 -23 218 4 4 46 10 94 14 49 4 95
8 104 9 13 1 18 -22 31 -121z m4770 72 c17 -27 37 -50 44 -50 8 0 14 -5 14
-11 0 -5 -4 -7 -10 -4 -6 3 -7 -1 -4 -9 9 -23 -19 -20 -41 4 -10 11 -22 17
-26 14 -8 -5 -10 0 -13 39 -1 6 -10 20 -21 29 -13 11 -15 17 -7 18 7 0 10 5 7
10 -3 6 1 10 10 10 9 0 30 -22 47 -50z m-5030 -87 c9 -65 15 -120 13 -122 -2
-2 -48 -4 -102 -5 l-98 -1 -16 110 c-8 61 -14 112 -12 114 1 2 42 7 90 11 49
4 93 8 99 9 6 0 17 -49 26 -116z m-2403 14 c18 -126 19 -122 -46 -137 -32 -7
-91 -23 -132 -36 -41 -13 -77 -21 -80 -18 -3 2 -12 54 -22 115 -11 79 -13 112
-5 115 29 11 262 50 267 45 4 -3 12 -41 18 -84z m2163 -34 c9 -65 15 -119 14
-119 0 -1 -53 -4 -117 -7 l-115 -5 -16 111 c-8 62 -14 113 -13 115 2 2 47 7
101 11 55 5 106 9 114 10 13 1 19 -23 32 -116z m-272 -18 c6 -59 9 -109 6
-112 -3 -4 -53 -8 -110 -11 -104 -5 -105 -4 -110 19 -12 58 -28 190 -24 194 5
6 210 22 219 18 3 -1 12 -50 19 -108z m-272 18 c6 -38 13 -87 17 -110 l5 -43
-33 0 c-19 0 -68 -3 -109 -6 l-74 -7 -12 90 c-7 50 -12 100 -12 111 0 22 1 22
152 30 l56 3 10 -68z m-250 -35 c21 -144 27 -133 -84 -147 -53 -6 -98 -10
-100 -8 -2 1 -9 51 -17 109 l-13 107 55 6 c31 3 63 7 71 8 8 2 29 4 46 5 l31
2 11 -82z m-239 -44 c6 -50 11 -97 11 -105 0 -11 -22 -18 -83 -27 -96 -14
-137 -15 -137 -4 0 4 -7 52 -15 106 -8 55 -12 102 -9 105 8 8 208 28 215 22 4
-4 12 -47 18 -97z m6381 80 c0 -8 -4 -12 -10 -9 -5 3 -10 13 -10 21 0 8 5 12
10 9 6 -3 10 -13 10 -21z m-6656 -26 c12 -58 28 -200 22 -205 -5 -5 -209 -43
-212 -39 -5 7 -32 231 -28 235 4 5 149 26 196 30 11 1 19 -8 22 -21z m-250
-80 c3 -35 9 -88 12 -118 l6 -55 -108 -18 c-60 -9 -114 -17 -120 -17 -6 0 -16
43 -23 98 -7 53 -15 109 -17 125 -5 23 -2 27 18 28 13 0 66 6 118 13 52 7 98
11 101 10 3 -2 9 -32 13 -66z m-290 0 c18 -111 25 -157 28 -187 l3 -34 -124
-24 c-68 -13 -125 -22 -128 -20 -7 8 -35 248 -29 254 5 5 187 38 233 42 7 1
14 -14 17 -31z m7221 -38 c28 -45 32 -58 10 -40 -8 7 -15 18 -15 25 0 7 -7 18
-15 25 -14 12 -20 30 -10 30 3 0 16 -18 30 -40z m-4411 -7 c-6 -50 -24 -180
-30 -220 -4 -30 -8 -33 -39 -33 -34 0 -35 1 -35 40 0 22 -1 41 -2 43 0 1 -6
46 -12 99 l-12 97 36 4 c100 11 99 11 94 -30z m4376 16 c6 -11 10 -26 8 -34
-2 -7 -11 2 -20 21 -19 36 -7 49 12 13z m-7476 -26 c21 -150 27 -216 20 -222
-11 -10 -254 -75 -258 -70 -3 3 -34 192 -39 239 -2 10 34 25 128 52 72 20 133
37 137 37 3 1 9 -16 12 -36z m2680 -121 c10 -79 16 -146 13 -148 -5 -5 -143
-23 -183 -24 l-32 0 -6 68 c-6 59 -13 104 -32 219 l-5 32 108 3 c59 2 111 1
114 -2 3 -3 13 -70 23 -148z m260 96 c4 -35 10 -99 13 -144 l6 -80 -104 -10
c-57 -6 -107 -8 -111 -5 -5 5 -17 79 -42 269 l-5 32 118 0 118 0 7 -62z m-518
-115 c12 -87 21 -159 20 -160 -1 0 -46 -4 -101 -8 l-101 -7 -17 138 c-10 77
-21 151 -24 167 l-5 27 104 0 104 0 20 -157z m-262 125 c3 -13 12 -77 21 -143
9 -66 18 -130 20 -141 5 -23 -2 -24 -190 -36 l-40 -3 -22 150 c-12 83 -22 158
-22 167 -1 18 25 22 166 26 58 2 63 0 67 -20z m-274 5 c1 -5 11 -81 23 -170
l23 -162 -76 -6 c-41 -3 -92 -8 -112 -10 -35 -5 -37 -4 -42 27 -13 78 -42 303
-40 306 2 3 39 7 207 21 9 0 17 -2 17 -6z m-247 -148 c10 -75 21 -151 24 -169
6 -39 3 -41 -133 -51 l-80 -7 -18 139 c-9 76 -20 155 -23 175 l-5 37 58 4 c33
2 82 4 109 5 l50 2 18 -135z m-269 83 c3 -18 12 -87 21 -153 9 -66 18 -129 20
-141 4 -19 -2 -21 -97 -32 -57 -6 -104 -10 -105 -8 -3 3 -43 305 -43 327 0 13
17 18 73 26 125 17 125 17 131 -19z m-244 -9 c0 -6 9 -81 21 -167 15 -118 17
-157 8 -162 -10 -7 -164 -30 -195 -30 -6 0 -16 35 -22 78 -31 217 -35 253 -28
259 4 4 46 13 94 19 116 16 122 16 122 3z m-230 -257 c7 -56 11 -104 9 -107
-6 -5 -211 -37 -215 -33 -5 6 -45 330 -41 334 3 3 51 13 108 22 l104 18 11
-66 c6 -36 17 -111 24 -168z m-290 181 c0 -5 6 -51 14 -103 8 -52 17 -125 21
-161 l7 -66 -112 -22 c-83 -17 -115 -20 -120 -11 -7 11 -38 231 -43 300 l-2
34 95 17 c111 19 140 22 140 12z m-275 -65 c13 -60 45 -312 40 -317 -7 -6
-248 -61 -252 -57 -4 3 -43 307 -43 332 0 18 12 23 103 41 137 28 146 28 152
1z m-295 -45 c0 -5 9 -75 20 -158 11 -82 20 -158 20 -167 0 -12 -20 -21 -87
-37 -49 -11 -107 -23 -130 -27 -41 -6 -42 -6 -47 27 -31 185 -46 292 -41 298
7 7 222 68 248 70 9 0 17 -2 17 -6z m3030 -20 c-1 -49 -21 -207 -29 -220 -8
-15 -12 10 -27 170 l-6 67 31 0 c23 0 31 -5 31 -17z m-100 -5 c1 -7 3 -29 5
-48 20 -174 29 -275 26 -306 -1 -16 -191 -40 -200 -26 -9 15 -54 363 -47 369
5 5 122 18 189 22 15 0 27 -4 27 -11z m-235 -202 c14 -103 24 -190 22 -192 -7
-7 -208 -30 -212 -25 -2 4 -6 26 -9 51 -3 25 -15 110 -27 189 -11 78 -19 144
-17 146 2 3 208 22 214 20 1 0 14 -85 29 -189z m-284 157 c0 -5 12 -92 27
-195 l27 -188 -30 -5 c-16 -3 -60 -9 -98 -14 -63 -7 -68 -6 -72 13 -9 41 -53
371 -49 375 11 12 194 25 195 14z m-210 -213 c15 -107 26 -196 24 -198 -8 -9
-219 -32 -225 -25 -7 9 -62 395 -56 400 6 6 158 21 195 19 l35 -1 27 -195z
m-297 148 c3 -18 15 -98 26 -178 11 -80 23 -159 25 -176 l4 -31 -110 -13 c-61
-6 -114 -9 -117 -5 -6 5 -62 406 -58 412 2 2 163 19 203 22 18 1 23 -6 27 -31z
m-243 -206 c15 -114 26 -209 24 -211 -8 -7 -195 -34 -201 -28 -5 5 -63 389
-64 423 0 10 197 34 210 26 2 -2 16 -96 31 -210z m-276 156 c16 -91 54 -402
50 -406 -3 -3 -50 -13 -104 -22 l-100 -17 -6 61 c-4 34 -17 135 -29 226 -12
91 -20 166 -16 168 6 2 143 19 177 21 17 1 23 -6 28 -31z m-225 -180 c13 -101
24 -203 24 -228 l1 -44 -100 -17 c-55 -9 -103 -14 -106 -10 -6 5 -31 194 -55
402 l-6 55 74 11 c40 5 89 10 109 11 l36 2 23 -182z m-280 140 c0 -7 13 -111
29 -231 19 -151 24 -220 17 -223 -24 -8 -200 -33 -206 -29 -4 2 -10 30 -13 62
-4 32 -13 108 -21 168 -30 221 -30 235 -10 235 11 1 57 7 104 14 47 8 88 14
93 15 4 1 7 -5 7 -11z m-260 -36 c0 -12 49 -404 54 -433 5 -26 5 -27 -102 -44
-59 -9 -111 -17 -117 -16 -10 0 -76 442 -68 451 3 4 201 47 226 49 4 1 7 -2 7
-7z m-265 -109 c3 -32 15 -119 25 -193 11 -74 20 -150 22 -169 l3 -34 -128
-27 c-86 -18 -130 -23 -132 -16 -4 11 -41 292 -52 392 l-5 51 98 22 c55 12
104 24 109 26 6 2 20 4 31 4 19 1 23 -6 29 -56z m-285 -175 c12 -95 25 -197
29 -226 5 -29 5 -54 2 -56 -6 -4 -208 -45 -240 -49 -15 -2 -15 -2 -25 88 -4
33 -16 125 -27 203 -11 79 -18 146 -15 149 4 4 186 49 247 62 4 0 16 -77 29
-171z m7571 42 c17 -52 39 -129 49 -170 9 -41 21 -75 27 -75 6 0 15 -3 19 -7
4 -5 2 -8 -5 -8 -10 0 -11 -15 -7 -57 4 -32 8 -116 11 -188 4 -120 3 -127 -10
-92 -8 21 -17 72 -20 115 -6 86 -23 191 -33 207 -4 5 -7 19 -8 30 -2 33 -35
178 -46 200 -5 12 -10 27 -12 35 -2 8 -6 23 -11 33 -4 9 -2 23 3 30 7 8 7 18
2 27 -13 20 -13 37 -1 25 5 -6 24 -53 42 -105z m-4696 48 c-11 -52 -105 -411
-113 -431 -5 -12 -19 70 -38 208 -34 259 -44 228 76 244 36 5 69 9 73 10 5 0
6 -14 2 -31z m-190 -215 c15 -120 29 -224 29 -232 1 -11 -23 -18 -89 -27 -49
-8 -97 -15 -107 -18 -12 -3 -17 6 -22 38 -3 22 -17 126 -32 229 -14 104 -24
191 -21 194 5 4 84 16 203 32 6 0 21 -82 39 -216z m-276 110 c17 -113 51 -364
51 -381 0 -14 -19 -20 -95 -32 -109 -18 -97 -29 -115 110 -6 47 -19 144 -29
215 -10 72 -18 131 -16 133 4 4 118 19 157 21 l36 1 11 -67z m-230 -63 c7 -52
21 -155 32 -229 10 -74 17 -137 14 -139 -7 -7 -217 -43 -222 -38 -3 2 -15 84
-29 182 -13 99 -29 206 -34 238 -5 33 -9 61 -7 62 6 6 223 29 228 24 3 -3 11
-48 18 -100z m-286 63 c3 -5 7 -33 11 -63 3 -30 15 -118 26 -195 11 -77 22
-158 25 -181 l6 -41 -118 -20 c-65 -12 -119 -20 -119 -20 -1 1 -14 97 -28 212
-15 116 -29 227 -32 247 -7 42 -12 39 106 56 87 12 118 13 123 5z m-269 -60
c3 -16 12 -84 21 -153 8 -69 20 -155 25 -192 19 -129 24 -121 -87 -140 -54 -9
-99 -15 -100 -14 -2 1 -14 86 -28 187 -14 101 -29 211 -34 244 -5 33 -7 62 -5
64 5 6 134 28 171 30 27 1 32 -3 37 -26z m-239 -75 c4 -35 18 -141 31 -237 13
-96 24 -180 24 -186 0 -10 -197 -51 -206 -43 -2 3 -25 170 -54 396 -7 51 -9
96 -6 99 8 8 131 30 173 32 31 1 31 1 38 -61z m-246 -55 c26 -185 54 -414 50
-417 -9 -10 -219 -42 -219 -34 0 5 -14 117 -31 249 -16 133 -29 243 -27 245 5
5 159 32 189 33 26 1 27 -2 38 -76z m-265 15 c16 -80 56 -471 49 -478 -4 -4
-39 -12 -78 -18 -38 -6 -84 -14 -101 -18 l-31 -6 -7 64 c-4 34 -15 128 -26
208 -10 80 -21 166 -24 191 l-5 46 92 15 c127 21 126 21 131 -4z m-256 -59 c2
-19 16 -131 31 -249 16 -118 28 -216 27 -217 -4 -5 -217 -45 -220 -42 -2 2
-18 105 -35 229 -17 124 -33 237 -36 252 -5 30 -17 25 135 53 41 7 79 12 84
11 6 -1 12 -18 14 -37z m-262 -99 c45 -324 56 -411 51 -417 -6 -5 -228 -52
-252 -53 -6 0 -12 12 -13 28 -1 15 -16 128 -33 251 -16 123 -28 226 -25 228 7
8 220 51 240 50 17 -2 22 -15 32 -87z m-312 3 c3 -16 17 -118 31 -228 14 -110
27 -212 30 -227 4 -24 1 -27 -43 -37 -69 -16 -215 -42 -217 -39 -3 6 -63 503
-61 506 4 3 218 50 238 51 10 1 18 -9 22 -26z m2686 -84 c0 -12 -11 -56 -24
-98 -14 -42 -44 -138 -68 -213 -61 -196 -66 -192 -102 78 -15 118 -25 218 -22
222 8 7 138 29 184 31 26 1 32 -3 32 -20z m-255 -66 c6 -50 16 -123 34 -253 6
-41 12 -91 13 -110 l3 -35 -88 -18 c-49 -11 -91 -16 -95 -12 -7 6 -71 437 -67
443 4 5 139 30 167 31 25 1 27 -3 33 -46z m-210 -200 c16 -115 29 -217 29
-227 1 -17 -14 -23 -109 -42 -60 -12 -111 -21 -113 -19 -3 3 -55 354 -64 430
l-3 30 90 16 c50 9 101 17 115 18 l26 1 29 -207z m-270 -35 c15 -112 29 -217
32 -234 l5 -31 -108 -21 c-60 -12 -116 -22 -124 -22 -12 0 -21 45 -44 231 -15
126 -26 232 -23 235 4 4 188 39 223 43 7 1 21 -75 39 -201z m-305 145 c0 -5
13 -109 29 -233 16 -124 26 -228 23 -231 -10 -9 -183 -41 -189 -35 -7 7 -67
465 -62 471 5 4 152 32 182 34 9 1 17 -2 17 -6z m-226 -160 c9 -71 24 -177 33
-236 8 -60 12 -111 9 -114 -9 -9 -198 -44 -205 -38 -6 6 -60 409 -60 456 -1
26 2 27 92 42 50 8 97 15 102 16 7 1 19 -53 29 -126z m-250 -50 c9 -76 21
-167 26 -203 22 -162 22 -149 -2 -155 -13 -3 -62 -13 -110 -23 l-87 -19 -5 26
c-3 14 -7 46 -10 71 -3 25 -15 118 -26 207 -12 90 -20 171 -18 180 2 13 25 21
98 34 52 9 100 17 106 18 7 1 18 -50 28 -136z m-274 77 c0 -13 48 -395 56
-442 4 -29 2 -37 -13 -42 -17 -5 -180 -35 -194 -36 -4 0 -12 37 -18 83 -6 45
-20 155 -32 245 -11 90 -19 165 -17 166 6 6 154 33 186 35 17 0 32 -3 32 -9z
m-225 -303 c15 -120 24 -221 21 -224 -9 -9 -197 -44 -206 -38 -4 3 -11 31 -14
62 -4 32 -18 135 -32 230 -13 94 -24 178 -24 185 0 10 25 18 78 27 42 7 91 16
107 20 38 9 36 17 70 -262z m-271 33 c15 -102 31 -212 36 -244 5 -33 8 -61 6
-63 -4 -4 -245 -52 -263 -53 -8 0 -13 12 -13 28 0 15 -14 124 -30 242 -16 118
-30 218 -30 223 0 4 10 7 23 7 12 1 72 11 132 24 61 12 111 22 112 22 1 -1 13
-84 27 -186z m-298 -123 c17 -133 30 -243 29 -245 -3 -3 -243 -52 -256 -52 -3
0 -14 62 -23 138 -9 75 -21 166 -26 202 -5 36 -12 85 -15 110 l-6 46 128 25
c70 14 130 24 132 22 3 -2 19 -112 37 -246z m3070 -157 c36 -74 86 -184 110
-243 59 -142 131 -255 287 -446 81 -99 123 -164 176 -269 128 -255 302 -352
626 -351 77 0 178 6 225 13 98 16 89 20 144 -79 32 -57 35 -69 51 -248 18
-200 16 -252 -15 -312 -12 -23 -17 -48 -13 -65 4 -24 1 -31 -25 -44 -17 -9
-51 -34 -77 -56 -25 -22 -56 -42 -68 -44 -12 -3 -105 -12 -207 -21 -102 -9
-187 -19 -190 -22 -3 -3 61 -3 142 1 145 6 147 6 145 -15 -1 -12 -13 -29 -27
-38 -14 -8 -29 -21 -35 -28 -5 -7 -48 -17 -95 -22 -47 -6 -98 -14 -115 -20
-35 -12 -224 -31 -305 -31 -34 0 -64 6 -76 15 -21 16 -34 19 -34 7 0 -4 19
-16 43 -27 33 -15 73 -20 192 -24 l150 -6 -65 -23 c-36 -13 -96 -35 -135 -49
-193 -70 -377 -222 -493 -408 -34 -54 -62 -105 -62 -113 0 -7 -11 -37 -24 -65
-12 -29 -33 -83 -45 -122 -13 -38 -25 -77 -27 -85 -5 -13 -6 -13 -14 1 -15 26
9 207 37 284 14 39 40 126 58 195 44 169 35 221 -32 187 -15 -8 -48 -18 -73
-22 -25 -4 -56 -14 -70 -23 -14 -9 -50 -28 -80 -43 -30 -15 -68 -41 -84 -58
-17 -17 -32 -31 -35 -31 -3 0 -7 18 -7 40 -1 22 -11 56 -23 76 -23 39 -26 65
-10 81 8 8 9 43 1 132 -12 137 -22 160 -116 291 -134 187 -315 345 -493 430
-40 18 -75 40 -78 48 -6 15 84 373 160 642 95 332 234 719 432 1198 l76 183
64 -118 c35 -65 93 -179 129 -253z m-3373 95 c18 -132 33 -241 32 -243 -3 -4
-249 -51 -253 -48 -3 3 -35 254 -57 438 l-6 56 53 11 c29 6 82 17 118 24 36 8
68 11 72 8 3 -3 22 -114 41 -246z m2697 209 c0 -39 -43 -132 -113 -242 l-41
-66 -23 149 c-12 82 -20 152 -17 155 6 6 148 37 177 39 13 1 17 -7 17 -35z
m-211 -189 l23 -174 -33 -48 c-38 -56 -151 -191 -161 -192 -7 -1 -19 69 -53
324 -14 105 -27 197 -29 206 -3 14 14 21 93 37 151 31 133 49 160 -153z m-274
-7 c9 -73 27 -203 40 -288 l22 -155 -107 -107 c-59 -60 -112 -108 -118 -108
-7 0 -12 8 -12 18 0 9 -20 174 -45 367 -24 192 -43 351 -41 352 4 4 213 51
232 52 7 1 18 -50 29 -131z m5702 70 c-3 -8 -6 -5 -6 6 -1 11 2 17 5 13 3 -3
4 -12 1 -19z m-6002 -20 c3 -17 77 -601 87 -693 1 -5 -2 -17 -5 -25 -3 -8 -7
-24 -9 -35 -2 -12 -28 -34 -68 -57 -36 -21 -67 -38 -70 -38 -16 0 -35 73 -50
193 -12 95 -22 168 -55 412 -14 105 -26 199 -28 210 -2 16 9 22 78 36 108 23
114 23 120 -3z m5865 -9 c0 -5 -4 -9 -10 -9 -5 0 -10 7 -10 16 0 8 5 12 10 9
6 -3 10 -10 10 -16z m168 -42 c12 -29 22 -61 21 -72 0 -14 -2 -16 -6 -5 -3 8
-11 22 -18 30 -7 8 -15 26 -17 40 -3 14 -9 33 -13 43 -4 9 -3 17 2 17 5 0 19
-24 31 -53z m-6268 11 c0 -7 16 -130 35 -273 20 -143 42 -308 50 -368 8 -59
11 -130 8 -158 l-6 -51 -71 -34 c-39 -19 -77 -34 -86 -34 -16 0 -35 36 -44 85
-6 34 -95 733 -99 780 -2 29 -1 29 78 46 102 21 135 22 135 7z m-247 -95 c3
-32 24 -202 47 -378 23 -176 44 -341 47 -367 4 -33 2 -48 -6 -48 -6 0 -11 -13
-11 -30 0 -34 -12 -42 -92 -59 -63 -13 -78 -10 -78 19 0 10 -7 23 -16 28 -10
6 -18 33 -25 83 -5 41 -13 108 -19 149 -5 41 -24 185 -40 320 -17 135 -32 257
-35 273 -4 30 -10 27 105 51 116 25 116 25 123 -41z m6430 -3 c3 -11 2 -20 -3
-20 -8 0 -20 24 -20 41 0 17 17 1 23 -21z m-66 -2 c11 -13 20 -30 21 -38 0 -8
3 -23 7 -32 4 -11 3 -18 -5 -18 -6 0 -8 -5 -4 -11 4 -8 9 -7 15 2 8 11 11 10
20 -5 6 -10 20 -27 30 -37 11 -11 19 -25 19 -31 1 -7 9 -31 20 -53 11 -22 19
-48 20 -57 0 -9 5 -20 10 -23 6 -3 10 -15 10 -26 0 -11 23 -86 50 -167 67
-195 120 -384 120 -427 0 -19 4 -35 8 -35 27 0 42 -128 22 -190 -6 -19 -8 -9
-9 37 -2 107 -17 76 -19 -39 -1 -90 -5 -117 -22 -144 -10 -19 -14 -34 -8 -34
6 0 8 -11 6 -25 -7 -34 0 -31 17 8 8 17 14 25 15 16 0 -22 -29 -159 -40 -184
-5 -11 -14 -38 -21 -60 -20 -70 -90 -193 -132 -235 -58 -59 -75 -53 -104 40
-12 41 -26 82 -31 90 -12 22 -14 138 -2 145 15 9 12 47 -6 73 -14 20 -12 26 9
23 10 -2 9 13 -3 25 -5 5 -13 31 -16 56 -5 36 -3 51 10 63 9 9 16 30 16 46 0
17 6 60 14 97 22 106 52 477 38 468 -5 -3 -6 8 -4 25 6 40 -39 209 -55 209 -7
0 -14 8 -14 18 -7 81 -9 88 -17 75 -4 -6 -7 10 -8 36 0 26 -4 56 -9 67 -9 21
-10 31 -15 143 -3 58 0 76 12 85 12 9 13 17 7 29 -14 24 4 21 28 -5z m-6613
-139 c10 -83 19 -161 21 -173 4 -27 13 -98 20 -156 3 -25 14 -113 25 -195 12
-96 16 -168 12 -200 l-7 -50 -87 -3 -86 -3 -7 31 c-4 16 -12 43 -20 58 -7 15
-18 77 -25 137 -6 61 -16 135 -20 165 -18 114 -63 501 -59 504 5 5 166 34 194
35 19 1 22 -10 39 -150z m6798 79 c12 -24 27 -65 34 -93 7 -27 16 -61 20 -75
7 -24 6 -23 -19 6 -17 21 -24 38 -20 52 3 13 -5 38 -21 66 -23 39 -35 86 -21
86 2 0 14 -19 27 -42z m-7072 24 c0 -5 22 -186 50 -403 31 -252 46 -397 40
-403 -6 -6 -10 -25 -10 -43 0 -32 -2 -33 -37 -32 -21 0 -60 4 -88 7 -48 7 -50
8 -58 47 -16 79 -111 740 -112 774 0 13 98 40 208 60 4 0 7 -3 7 -7z m-224
-277 c14 -110 36 -270 48 -355 17 -123 19 -156 9 -158 -7 -2 -13 -14 -13 -27
0 -13 -4 -26 -8 -29 -4 -2 -56 7 -114 20 -130 31 -136 38 -154 173 -41 313
-65 500 -67 525 l-2 30 130 26 c116 24 131 25 137 11 4 -9 19 -106 34 -216z
m-342 148 c3 -10 17 -108 31 -218 14 -110 32 -241 39 -292 16 -122 10 -132
-67 -103 -59 22 -162 85 -189 116 -12 14 -26 78 -48 224 -16 113 -30 214 -30
226 0 19 12 23 108 41 138 26 149 27 156 6z m-274 -277 c11 -88 18 -161 17
-163 -13 -12 -286 242 -292 271 -2 12 -6 35 -9 52 l-5 31 127 24 127 24 7 -40
c5 -22 17 -112 28 -199z m7949 190 c12 -18 21 -42 21 -52 -1 -18 -1 -18 -12 1
-6 11 -14 22 -18 25 -8 6 -22 60 -16 60 2 0 14 -15 25 -34z m-8269 -32 c0 -14
-3 -14 -15 -4 -8 7 -15 14 -15 16 0 2 7 4 15 4 8 0 15 -7 15 -16z m8318 -39
c-3 -3 -9 2 -12 12 -6 14 -5 15 5 6 7 -7 10 -15 7 -18z m16 -77 c10 -38 6 -45
-9 -18 -17 29 -18 40 -6 40 5 0 11 -10 15 -22z m6 -101 c0 -10 4 -26 9 -35 11
-22 25 -99 16 -90 -9 8 -65 174 -65 191 0 7 9 -1 20 -18 11 -16 20 -38 20 -48z
m17 21 c-3 -8 -6 -5 -6 6 -1 11 2 17 5 13 3 -3 4 -12 1 -19z m20 -190 c-3 -8
-6 -5 -6 6 -1 11 2 17 5 13 3 -3 4 -12 1 -19z m-5873 -235 c-3 -32 -42 -184
-86 -338 -44 -154 -82 -302 -85 -329 -7 -53 -31 -86 -63 -86 -35 0 -320 -107
-344 -129 -33 -31 -58 -28 -56 7 4 53 3 55 -37 47 -53 -9 -95 -39 -214 -152
-91 -86 -261 -213 -286 -213 -5 0 -25 33 -45 73 -37 75 -122 212 -286 461 -51
76 -92 141 -92 145 0 3 -11 22 -24 42 -14 20 -27 51 -31 71 -8 44 9 109 35
133 19 18 21 18 55 -1 19 -10 35 -23 35 -29 0 -10 38 -22 135 -45 59 -14 153
-12 231 4 93 19 277 38 297 30 25 -9 144 14 191 37 64 32 286 110 339 119 62
11 138 56 207 122 112 107 133 112 124 31z m5584 -1051 c10 -30 10 -31 -7 -22
-23 12 -32 35 -24 56 7 19 17 9 31 -34z m-3118 -246 c0 -3 -4 -8 -10 -11 -5
-3 -10 -1 -10 4 0 6 5 11 10 11 6 0 10 -2 10 -4z"/>
<path d="M4608 5313 c-10 -2 -18 -9 -18 -13 0 -10 49 -3 85 11 15 6 12 8 -15
7 -19 0 -43 -2 -52 -5z"/>
<path d="M8080 7495 c0 -5 5 -17 10 -25 5 -8 10 -10 10 -5 0 6 -5 17 -10 25
-5 8 -10 11 -10 5z"/>
<path d="M8432 6530 c0 -14 2 -19 5 -12 2 6 2 18 0 25 -3 6 -5 1 -5 -13z"/>
<path d="M8110 6171 c0 -6 5 -13 10 -16 6 -3 10 1 10 9 0 9 -4 16 -10 16 -5 0
-10 -4 -10 -9z"/>
<path d="M6610 11900 c8 -5 20 -10 25 -10 6 0 3 5 -5 10 -8 5 -19 10 -25 10
-5 0 -3 -5 5 -10z"/>
<path d="M7370 11350 c8 -5 22 -9 30 -9 10 0 8 3 -5 9 -27 12 -43 12 -25 0z"/>
<path d="M7429 11326 c8 -10 33 -26 55 -37 40 -20 40 -20 17 -1 -14 11 -38 28
-55 38 -29 17 -30 17 -17 0z"/>
<path d="M7898 9615 c2 -14 8 -27 12 -30 4 -2 5 7 2 20 -2 14 -8 27 -12 30 -4
2 -5 -7 -2 -20z"/>
</g>
</svg>
